<svg width="56" height="53" viewBox="0 0 56 53" fill="none" xmlns="http://www.w3.org/2000/svg">
<path fill-rule="evenodd" clip-rule="evenodd" d="M44.7884 0.243164C38.2915 0.243164 33.0543 4.57386 27.9894 8.7624C23.4051 12.5531 19.075 16.1334 14.2754 16.1334H6.31453C2.8518 16.1334 0.0351562 18.9442 0.0351562 22.4012V27.6984C0.0351562 31.1548 2.8518 33.9656 6.31453 33.9656H6.66783V46.2372C6.66783 49.6936 9.48508 52.505 12.9478 52.505H15.6012C19.064 52.505 21.8806 49.6936 21.8806 46.2372V36.6539C23.9081 37.9675 25.9222 39.6301 27.9876 41.3384C33.053 45.5258 38.2902 49.8577 44.7872 49.8577C50.5409 49.8571 55.0476 38.9608 55.0476 25.0504C55.0476 11.1395 50.5409 0.243164 44.7884 0.243164ZM19.9352 46.2384C19.9352 48.6234 17.9909 50.5636 15.6015 50.5636H12.948C10.5581 50.5636 8.61367 48.6234 8.61367 46.2384V33.9662H14.2751C16.2231 33.9662 18.0935 34.5636 19.9352 35.5172V46.2384ZM29.2295 39.8419C24.5815 35.9975 19.7753 32.0231 14.2746 32.0231H6.3137C3.92432 32.0231 1.97993 30.0829 1.97993 27.6979V22.4008C1.97993 20.0158 3.92432 18.075 6.3137 18.075H14.274C19.7746 18.075 24.5803 14.1 29.2288 10.2574C32.6262 7.44833 36.106 4.57889 39.9049 3.13777C36.6781 7.272 34.5272 15.4404 34.5272 25.05C34.5272 34.6577 36.6775 42.8267 39.9037 46.9597C36.106 45.5198 32.6262 42.6504 29.2295 39.8419ZM44.7887 47.9141C40.7734 47.9141 36.4745 38.7267 36.4745 25.0495C36.4745 11.3716 40.7728 2.18364 44.7887 2.18364C48.8034 2.18364 53.1023 11.3716 53.1023 25.0495C53.1017 38.7267 48.8034 47.9141 44.7887 47.9141Z" fill="#5252B9"/>
</svg>
