<svg width="89" height="90" viewBox="0 0 89 90" fill="none" xmlns="http://www.w3.org/2000/svg">
<path fill-rule="evenodd" clip-rule="evenodd" d="M40.5825 5.1355H48.4175C55.2326 5.13544 60.6305 5.13539 64.8551 5.70337C69.2029 6.28791 72.7219 7.51951 75.4971 10.2947C78.2722 13.0699 79.5038 16.5889 80.0884 20.9366C80.6564 25.1612 80.6563 30.5592 80.6562 37.3742V52.6259C80.6563 59.441 80.6564 64.839 80.0884 69.0635C79.5038 73.4113 78.2722 76.9303 75.4971 79.7055C72.7219 82.4806 69.2029 83.7122 64.8551 84.2968C60.6305 84.8648 55.2326 84.8647 48.4175 84.8647H40.5825C33.7674 84.8647 28.3695 84.8648 24.1449 84.2968C19.7971 83.7122 16.2781 82.4806 13.5029 79.7055C10.7278 76.9303 9.49616 73.4113 8.91163 69.0635C8.34365 64.839 8.34369 59.441 8.34375 52.626V37.3742C8.34369 30.5592 8.34365 25.1612 8.91163 20.9366C9.49616 16.5889 10.7278 13.0699 13.5029 10.2947C16.2781 7.51951 19.7971 6.28791 24.1449 5.70337C28.3695 5.13539 33.7674 5.13544 40.5825 5.1355ZM24.8861 11.2163C21.1552 11.7179 19.0056 12.6586 17.4362 14.228C15.8668 15.7974 14.9261 17.9469 14.4245 21.6778C13.9122 25.4887 13.9063 30.5123 13.9063 37.5834V52.4168C13.9063 59.4879 13.9122 64.5114 14.4245 68.3223C14.9261 72.0533 15.8668 74.2028 17.4362 75.7722C19.0056 77.3416 21.1552 78.2823 24.8861 78.7839C28.697 79.2963 33.7205 79.3022 40.7917 79.3022H48.2083C55.2795 79.3022 60.303 79.2963 64.1139 78.7839C67.8449 78.2823 69.9944 77.3416 71.5638 75.7722C73.1332 74.2028 74.0739 72.0533 74.5755 68.3223C75.0878 64.5114 75.0938 59.4879 75.0938 52.4168V37.5834C75.0938 30.5123 75.0878 25.4887 74.5755 21.6778C74.0739 17.9469 73.1332 15.7974 71.5638 14.228C69.9944 12.6586 67.8449 11.7179 64.1139 11.2163C60.303 10.7039 55.2795 10.698 48.2083 10.698H40.7917C33.7205 10.698 28.697 10.7039 24.8861 11.2163ZM26.8854 30.1667C26.8854 28.6307 28.1306 27.3855 29.6667 27.3855H59.3333C60.8694 27.3855 62.1146 28.6307 62.1146 30.1667C62.1146 31.7028 60.8694 32.948 59.3333 32.948H29.6667C28.1306 32.948 26.8854 31.7028 26.8854 30.1667ZM26.8854 45.0001C26.8854 43.464 28.1306 42.2188 29.6667 42.2188H59.3333C60.8694 42.2188 62.1146 43.464 62.1146 45.0001C62.1146 46.5361 60.8694 47.7813 59.3333 47.7813H29.6667C28.1306 47.7813 26.8854 46.5361 26.8854 45.0001ZM26.8854 59.8334C26.8854 58.2974 28.1306 57.0522 29.6667 57.0522H48.2083C49.7444 57.0522 50.9896 58.2974 50.9896 59.8334C50.9896 61.3695 49.7444 62.6147 48.2083 62.6147H29.6667C28.1306 62.6147 26.8854 61.3695 26.8854 59.8334Z" fill="#F15A25"/>
</svg>
