<svg width="182" height="182" viewBox="0 0 182 182" fill="none" xmlns="http://www.w3.org/2000/svg">
<path d="M106.105 83.2908H60.7923M75.8965 113.499H60.7923M121.209 53.0824H60.7923M151.417 51.572V130.114C151.417 142.802 151.417 149.147 148.948 153.993C146.776 158.256 143.31 161.722 139.047 163.894C134.2 166.364 127.856 166.364 115.167 166.364H66.834C54.1453 166.364 47.801 166.364 42.9545 163.894C38.6915 161.722 35.2255 158.256 33.0534 153.993C30.584 149.147 30.584 142.802 30.584 130.114V51.572C30.584 38.8833 30.584 32.539 33.0534 27.6925C35.2255 23.4295 38.6915 19.9635 42.9545 17.7914C47.801 15.322 54.1453 15.322 66.834 15.322H115.167C127.856 15.322 134.2 15.322 139.047 17.7914C143.31 19.9635 146.776 23.4295 148.948 27.6925C151.417 32.539 151.417 38.8833 151.417 51.572Z" stroke="#CBD1DA" stroke-width="7.88043" stroke-linecap="round" stroke-linejoin="round"/>
</svg>
