<svg width="134" height="134" viewBox="0 0 134 134" fill="none" xmlns="http://www.w3.org/2000/svg">
<rect x="0.453125" y="0.216797" width="133.512" height="133.512" rx="42.7239" fill="#FF5722"/>
<path fill-rule="evenodd" clip-rule="evenodd" d="M67.3153 32.0107H67.6834C75.0895 32.0107 80.8935 32.0107 85.422 32.6195C90.0572 33.2427 93.7148 34.5432 96.5857 37.414C99.4565 40.2849 100.757 43.9424 101.38 48.5776C101.989 53.1062 101.989 58.9102 101.989 66.3163V66.6844C101.989 74.0905 101.989 79.8945 101.38 84.423C100.757 89.0582 99.4565 92.7158 96.5857 95.5866C93.7148 98.4575 90.0572 99.7579 85.422 100.381C80.8935 100.99 75.0895 100.99 67.6834 100.99H67.3153C59.9092 100.99 54.1052 100.99 49.5767 100.381C44.9415 99.7579 41.2839 98.4575 38.413 95.5866C35.5422 92.7158 34.2417 89.0582 33.6185 84.423C33.0097 79.8945 33.0097 74.0905 33.0098 66.6844V66.3162C33.0097 58.9101 33.0097 53.1062 33.6185 48.5776C34.2417 43.9424 35.5422 40.2849 38.413 37.414C41.2839 34.5432 44.9415 33.2427 49.5767 32.6195C54.1052 32.0107 59.9092 32.0107 67.3153 32.0107ZM50.2179 37.3891C46.1164 37.9405 43.6436 38.9893 41.816 40.817C39.9883 42.6446 38.9396 45.1173 38.3881 49.2189C37.8274 53.3896 37.8223 58.8702 37.8223 66.5003C37.8223 74.1305 37.8274 79.611 38.3881 83.7818C38.9396 87.8833 39.9883 90.356 41.816 92.1837C43.6436 94.0113 46.1164 95.0601 50.2179 95.6116C54.3887 96.1723 59.8692 96.1774 67.4993 96.1774C75.1295 96.1774 80.61 96.1723 84.7808 95.6116C88.8823 95.0601 91.3551 94.0113 93.1827 92.1837C95.0104 90.356 96.0591 87.8833 96.6106 83.7818C97.1713 79.611 97.1764 74.1305 97.1764 66.5003C97.1764 58.8702 97.1713 53.3896 96.6106 49.2189C96.0591 45.1173 95.0104 42.6446 93.1827 40.817C91.3551 38.9893 88.8823 37.9405 84.7808 37.3891C80.61 36.8284 75.1295 36.8232 67.4993 36.8232C59.8692 36.8232 54.3887 36.8284 50.2179 37.3891ZM62.7422 48.7162C63.7045 49.6327 63.7416 51.1558 62.8251 52.1181L53.6585 61.7431C53.2043 62.22 52.5746 62.4899 51.916 62.4899C51.2575 62.4899 50.6277 62.22 50.1736 61.7431L46.5069 57.8931C45.5904 56.9308 45.6275 55.4077 46.5899 54.4912C47.5522 53.5747 49.0753 53.6118 49.9918 54.5742L51.916 56.5946L59.3402 48.7992C60.2567 47.8368 61.7798 47.7997 62.7422 48.7162ZM68.3014 56.8753C68.3014 55.5464 69.3787 54.4691 70.7077 54.4691H86.7493C88.0783 54.4691 89.1556 55.5464 89.1556 56.8753C89.1556 58.2043 88.0783 59.2816 86.7493 59.2816H70.7077C69.3787 59.2816 68.3014 58.2043 68.3014 56.8753ZM62.7422 71.1745C63.7045 72.091 63.7416 73.6141 62.8251 74.5765L53.6585 84.2015C53.2043 84.6783 52.5746 84.9482 51.916 84.9482C51.2575 84.9482 50.6277 84.6783 50.1736 84.2015L46.5069 80.3515C45.5904 79.3891 45.6275 77.866 46.5899 76.9495C47.5522 76.033 49.0753 76.0702 49.9918 77.0325L51.916 79.0529L59.3402 71.2575C60.2567 70.2952 61.7798 70.258 62.7422 71.1745ZM68.3014 79.3337C68.3014 78.0047 69.3787 76.9274 70.7077 76.9274H86.7493C88.0783 76.9274 89.1556 78.0047 89.1556 79.3337C89.1556 80.6626 88.0783 81.7399 86.7493 81.7399H70.7077C69.3787 81.7399 68.3014 80.6626 68.3014 79.3337Z" fill="white"/>
</svg>
