<svg width="134" height="134" viewBox="0 0 134 134" fill="none" xmlns="http://www.w3.org/2000/svg">
<rect x="0.453125" y="0.176758" width="133.512" height="133.512" rx="42.7239" fill="#FF5722"/>
<path fill-rule="evenodd" clip-rule="evenodd" d="M67.4994 43.2393C64.0972 43.2393 61.3736 44.2915 54.8773 46.89L45.8668 50.4942C42.625 51.7909 40.3786 52.6929 38.9226 53.4562C38.7803 53.5308 38.652 53.6009 38.5367 53.6663C38.652 53.7318 38.7803 53.8019 38.9226 53.8764C40.3786 54.6398 42.625 55.5418 45.8668 56.8385L54.8773 60.4427C61.3736 63.0412 64.0972 64.0934 67.4994 64.0934C70.9015 64.0934 73.6251 63.0412 80.1214 60.4427L89.1319 56.8385C92.3738 55.5418 94.6201 54.6398 96.0761 53.8764C96.2184 53.8019 96.3466 53.7318 96.462 53.6663C96.3466 53.6009 96.2184 53.5308 96.0761 53.4562C94.6201 52.6929 92.3738 51.7909 89.1319 50.4942L80.1214 46.89C73.6251 44.2915 70.9015 43.2393 67.4994 43.2393ZM53.461 42.2732C59.4824 39.864 63.0743 38.4268 67.4994 38.4268C71.9244 38.4268 75.5163 39.864 81.5376 42.2732C81.6603 42.3223 81.784 42.3718 81.9088 42.4217L91.0647 46.0841C94.1274 47.3091 96.6079 48.3013 98.3107 49.194C99.1725 49.6458 100.007 50.158 100.651 50.7754C101.312 51.4099 101.989 52.372 101.989 53.6663C101.989 54.9607 101.312 55.9228 100.651 56.5573C100.007 57.1747 99.1725 57.6869 98.3107 58.1387C96.6079 59.0314 94.1274 60.0236 91.0648 61.2486L81.9088 64.911C81.784 64.9609 81.6603 65.0104 81.5376 65.0595C75.5163 67.4687 71.9244 68.9059 67.4994 68.9059C63.0743 68.9059 59.4824 67.4687 53.4611 65.0595C53.3384 65.0104 53.2147 64.9609 53.0899 64.911L43.934 61.2486C40.8714 60.0236 38.3908 59.0314 36.688 58.1387C35.8262 57.6869 34.9914 57.1747 34.3477 56.5573C33.6862 55.9228 33.0098 54.9607 33.0098 53.6663C33.0098 52.372 33.6862 51.4099 34.3477 50.7754C34.9914 50.158 35.8262 49.6458 36.688 49.194C38.3908 48.3012 40.8714 47.3091 43.934 46.0841L53.0899 42.4217C53.2147 42.3718 53.3384 42.3223 53.461 42.2732ZM37.0168 64.7032L37.0286 64.7134C37.0427 64.7256 37.069 64.7482 37.1075 64.7804C37.1845 64.8447 37.3103 64.9473 37.4847 65.082C37.8336 65.3517 38.377 65.7499 39.1146 66.2283C40.5899 67.1851 42.8407 68.4614 45.8668 69.6718L54.8773 73.276C61.3736 75.8746 64.0972 76.9268 67.4994 76.9268C70.9015 76.9268 73.6251 75.8746 80.1214 73.276L89.1319 69.6718C92.158 68.4614 94.4088 67.1851 95.8841 66.2283C96.6218 65.7499 97.1651 65.3517 97.514 65.082C97.6884 64.9473 97.8142 64.8447 97.8912 64.7804C97.9297 64.7482 97.956 64.7256 97.9701 64.7134L97.9768 64.7077C97.9784 64.7062 97.9804 64.7045 97.982 64.7031C98.9714 63.8214 100.488 63.9057 101.374 64.8929C102.261 65.8821 102.179 67.4034 101.189 68.2908L99.5827 66.4997C101.189 68.2908 101.19 68.2904 101.189 68.2908L101.185 68.2948L101.179 68.2999L101.165 68.313L101.121 68.3514C101.085 68.3822 101.037 68.4236 100.976 68.4745C100.853 68.5765 100.681 68.717 100.457 68.89C100.009 69.2358 99.3579 69.7113 98.5027 70.266C96.7924 71.3752 94.2646 72.802 90.9193 74.1401L81.9088 77.7443C81.784 77.7942 81.6603 77.8437 81.5377 77.8928C75.5163 80.3021 71.9244 81.7393 67.4994 81.7393C63.0743 81.7393 59.4824 80.3021 53.4611 77.8928C53.3384 77.8437 53.2147 77.7942 53.0899 77.7443L44.0794 74.1401C40.7341 72.802 38.2063 71.3752 36.496 70.266C35.6408 69.7113 34.9895 69.2358 34.542 68.89C34.3182 68.717 34.1453 68.5765 34.0232 68.4745C33.9621 68.4236 33.9138 68.3822 33.8781 68.3514L33.8342 68.313L33.8193 68.2999L33.8137 68.2948L33.8102 68.2917C33.8097 68.2913 33.8092 68.2908 35.416 66.4997L33.8102 68.2917C32.821 67.4043 32.7374 65.8821 33.6248 64.8929C34.5105 63.9056 36.0275 63.8214 37.0168 64.7032ZM97.9772 77.5407C97.9788 77.5393 97.9804 77.5378 97.982 77.5364C98.9714 76.6548 100.488 76.739 101.374 77.7262C102.261 78.7155 102.179 80.2368 101.189 81.1242L99.5827 79.333C101.189 81.1242 101.19 81.1237 101.189 81.1242L101.185 81.1282L101.179 81.1332L101.165 81.1463L101.121 81.1847C101.085 81.2156 101.037 81.2569 100.976 81.3079C100.853 81.4098 100.681 81.5504 100.457 81.7233C100.009 82.0692 99.3579 82.5447 98.5027 83.0993C96.7924 84.2085 94.2646 85.6353 90.9193 86.9735L81.9088 90.5777C81.784 90.6275 81.6603 90.677 81.5377 90.7261C75.5163 93.1354 71.9244 94.5726 67.4994 94.5726C63.0743 94.5726 59.4824 93.1354 53.4611 90.7261C53.3384 90.677 53.2147 90.6275 53.0899 90.5777L44.0794 86.9735C40.7341 85.6353 38.2063 84.2085 36.496 83.0993C35.6408 82.5447 34.9895 82.0692 34.542 81.7233C34.3182 81.5504 34.1453 81.4098 34.0232 81.3079C33.9621 81.2569 33.9138 81.2156 33.8781 81.1847L33.8342 81.1463L33.8193 81.1332L33.8137 81.1282L33.8102 81.1251C33.8097 81.1246 33.8092 81.1242 35.416 79.333L33.8102 81.1251C32.821 80.2377 32.7374 78.7155 33.6248 77.7262C34.5104 76.739 36.0273 76.6548 37.0167 77.5364C37.0161 77.5358 37.0173 77.5369 37.0167 77.5364C37.0173 77.5369 37.0198 77.5391 37.0204 77.5397C37.0199 77.5392 37.0209 77.5401 37.0204 77.5397L37.0286 77.5467C37.0427 77.559 37.069 77.5815 37.1075 77.6137C37.1845 77.678 37.3103 77.7806 37.4847 77.9154C37.8336 78.185 38.377 78.5832 39.1146 79.0616C40.5899 80.0184 42.8407 81.2947 45.8668 82.5052L54.8773 86.1094C61.3736 88.7079 64.0972 89.7601 67.4994 89.7601C70.9015 89.7601 73.6251 88.7079 80.1214 86.1094L89.1319 82.5052C92.158 81.2947 94.4088 80.0184 95.8841 79.0616C96.6218 78.5832 97.1651 78.185 97.514 77.9154C97.6884 77.7806 97.8142 77.678 97.8912 77.6137C97.9297 77.5815 97.956 77.559 97.9701 77.5467L97.9772 77.5407Z" fill="white"/>
</svg>
