<svg width="134" height="134" viewBox="0 0 134 134" fill="none" xmlns="http://www.w3.org/2000/svg">
<rect x="0.453125" y="0.256836" width="133.512" height="133.512" rx="42.7239" fill="#FF5722"/>
<path d="M51.4596 48.2493C51.4596 50.0213 50.0232 51.4577 48.2513 51.4577C46.4794 51.4577 45.043 50.0213 45.043 48.2493C45.043 46.4774 46.4794 45.041 48.2513 45.041C50.0232 45.041 51.4596 46.4774 51.4596 48.2493Z" fill="white"/>
<path d="M61.0846 48.2493C61.0846 50.0213 59.6482 51.4577 57.8763 51.4577C56.1044 51.4577 54.668 50.0213 54.668 48.2493C54.668 46.4774 56.1044 45.041 57.8763 45.041C59.6482 45.041 61.0846 46.4774 61.0846 48.2493Z" fill="white"/>
<path d="M67.5013 51.4577C69.2732 51.4577 70.7096 50.0213 70.7096 48.2493C70.7096 46.4774 69.2732 45.041 67.5013 45.041C65.7294 45.041 64.293 46.4774 64.293 48.2493C64.293 50.0213 65.7294 51.4577 67.5013 51.4577Z" fill="white"/>
<path fill-rule="evenodd" clip-rule="evenodd" d="M67.3172 33.0098C59.9111 33.0097 54.1071 33.0097 49.5786 33.6185C44.9434 34.2417 41.2858 35.5422 38.415 38.413C35.5441 41.2839 34.2437 44.9415 33.6205 49.5767C33.2599 52.2587 33.1129 55.388 33.053 59.0326C33.0259 59.1771 33.0117 59.3262 33.0117 59.4785C33.0117 59.6065 33.0217 59.7322 33.041 59.8548C33.0117 62.1402 33.0117 64.6218 33.0117 67.3153V67.6834C33.0117 75.0895 33.0116 80.8935 33.6205 85.4221C34.2437 90.0572 35.5441 93.7148 38.415 96.5857C41.2858 99.4565 44.9434 100.757 49.5786 101.38C54.1071 101.989 59.9111 101.989 67.3172 101.989H67.6854C75.0915 101.989 80.8955 101.989 85.424 101.38C90.0592 100.757 93.7168 99.4565 96.5876 96.5857C99.4585 93.7148 100.759 90.0572 101.382 85.4221C101.991 80.8935 101.991 75.0895 101.991 67.6834V67.3153C101.991 64.6218 101.991 62.1402 101.962 59.8548C101.981 59.7322 101.991 59.6065 101.991 59.4785C101.991 59.3262 101.977 59.1771 101.95 59.0326C101.89 55.388 101.743 52.2587 101.382 49.5767C100.759 44.9415 99.4585 41.2839 96.5876 38.413C93.7168 35.5422 90.0592 34.2417 85.424 33.6185C80.8955 33.0097 75.0915 33.0097 67.6854 33.0098H67.3172ZM37.8242 67.4994C37.8242 65.4829 37.8246 63.6165 37.8355 61.8848H55.4701L55.4701 96.3744C55.4701 96.6047 55.5024 96.8274 55.5628 97.0383C53.5639 96.9554 51.7981 96.8228 50.2199 96.6106C46.1183 96.0591 43.6456 95.0104 41.8179 93.1827C39.9903 91.3551 38.9415 88.8823 38.3901 84.7808C37.8293 80.61 37.8242 75.1295 37.8242 67.4994ZM60.1548 97.1499C62.3581 97.1758 64.7944 97.1764 67.5013 97.1764C75.1314 97.1764 80.612 97.1713 84.7827 96.6106C88.8843 96.0591 91.357 95.0104 93.1847 93.1827C95.0123 91.3551 96.0611 88.8823 96.6125 84.7808C97.1733 80.61 97.1784 75.1295 97.1784 67.4994C97.1784 65.4829 97.178 63.6165 97.1672 61.8848H60.2826L60.2826 96.3744C60.2826 96.6457 60.2376 96.9066 60.1548 97.1499ZM38.3901 50.2179C38.1259 52.1827 37.9851 54.4383 37.91 57.0723H97.0927C97.0176 54.4383 96.8767 52.1827 96.6125 50.2179C96.0611 46.1164 95.0123 43.6436 93.1847 41.816C91.357 39.9883 88.8843 38.9396 84.7827 38.3881C80.612 37.8274 75.1314 37.8223 67.5013 37.8223C59.8712 37.8223 54.3906 37.8274 50.2199 38.3881C46.1183 38.9396 43.6456 39.9883 41.8179 41.816C39.9903 43.6436 38.9415 46.1164 38.3901 50.2179Z" fill="white"/>
</svg>
