<svg width="31" height="31" viewBox="0 0 31 31" fill="none" xmlns="http://www.w3.org/2000/svg">
<path fill-rule="evenodd" clip-rule="evenodd" d="M15.193 30.0784C23.4641 30.0784 30.1692 23.3733 30.1692 15.1022C30.1692 6.83105 23.4641 0.125977 15.193 0.125977C6.92187 0.125977 0.216797 6.83105 0.216797 15.1022C0.216797 23.3733 6.92187 30.0784 15.193 30.0784ZM10.693 11.126H6.69299V22.126H10.693V11.126ZM23.4512 11.4693C22.6235 10.5738 21.5288 10.126 20.1677 10.126C19.6663 10.126 19.2104 10.1871 18.8004 10.3095C18.3905 10.4318 18.0443 10.6033 17.7617 10.8243C17.4792 11.0452 17.2542 11.2503 17.0871 11.4396C16.9283 11.6193 16.773 11.8287 16.6214 12.0656V10.398H12.693L12.705 10.9661C12.7131 11.3449 12.7171 12.5125 12.7171 14.4691C12.7171 16.4258 12.7091 18.978 12.6932 22.126H16.6214V15.5814C16.6214 15.1791 16.665 14.8596 16.7527 14.6228C16.92 14.2202 17.1725 13.8831 17.511 13.6111C17.8494 13.3386 18.2692 13.2026 18.7708 13.2026C19.4552 13.2026 19.9588 13.4373 20.2812 13.9067C20.6036 14.3761 20.7647 15.025 20.7647 15.8535V22.1256H24.693V15.4041C24.6927 13.6761 24.2791 12.3645 23.4512 11.4693ZM7.24971 5.69328C7.62096 5.3152 8.10558 5.12598 8.70368 5.12598C9.30182 5.12598 9.78125 5.31504 10.1415 5.69328C10.5017 6.07145 10.6856 6.54892 10.6928 7.12602C10.6999 7.69525 10.518 8.17088 10.1469 8.55285C9.7758 8.93503 9.28747 9.12598 8.68202 9.12598H8.6604C8.06946 9.12598 7.59374 8.93487 7.2335 8.55285C6.87315 8.17088 6.69299 7.69509 6.69299 7.12602C6.69299 6.54888 6.87849 6.07145 7.24971 5.69328Z" fill="#1C1B1B"/>
</svg>
