<svg width="392" height="377" viewBox="0 0 392 377" fill="none" xmlns="http://www.w3.org/2000/svg">
<path d="M196.145 16.3506L49.5513 78.9756V172.913C49.5513 259.805 112.098 341.061 196.145 360.788C280.193 341.061 342.739 259.805 342.739 172.913V78.9756L196.145 16.3506ZM196.145 77.41C205.81 77.41 215.257 80.1647 223.293 85.3257C231.329 90.4867 237.592 97.8222 241.29 106.405C244.989 114.987 245.957 124.431 244.071 133.542C242.186 142.653 237.532 151.022 230.698 157.591C223.864 164.159 215.157 168.633 205.678 170.445C196.2 172.257 186.374 171.327 177.446 167.772C168.517 164.217 160.885 158.197 155.516 150.473C150.147 142.749 147.281 133.668 147.281 124.379C147.281 111.922 152.429 99.9752 161.593 91.1669C170.757 82.3585 183.186 77.41 196.145 77.41ZM196.145 201.094C228.722 201.094 293.875 218.16 293.875 249.316C283.177 264.817 268.655 277.533 251.602 286.33C234.55 295.126 215.498 299.73 196.145 299.73C176.793 299.73 157.741 295.126 140.688 286.33C123.636 277.533 109.114 264.817 98.416 249.316C98.416 218.16 163.569 201.094 196.145 201.094Z" fill="#ffffff"/>
</svg>
