<svg width="478" height="459" viewBox="0 0 478 459" fill="none" xmlns="http://www.w3.org/2000/svg">
<rect x="31.2441" y="29.7539" width="414.556" height="398.471" rx="35.5513" fill="#F15A25"/>
<path d="M345.746 105.329H343.727C338.319 105.509 332.335 106.529 325.846 108.313C312.868 111.893 298.159 118.416 283.089 126.203C252.879 141.747 221.226 162.288 195.486 173.808C176.451 182.413 152.729 187.964 130.738 192.891C108.747 197.818 88.2342 202.19 77.1234 207.187C71.9825 209.546 69.2643 211.975 67.9592 214.057C66.6614 216.069 66.4451 217.665 66.9209 219.886C67.8727 224.327 73.1001 230.573 80.2526 235.083L82.6247 236.541C199.884 234.945 291.309 227.034 362.185 200.039C363.699 187.825 367.016 175.959 374.082 166.382V166.313L374.154 166.244C391.819 143.898 380.571 115.877 358.003 107.334C354.398 105.981 350.288 105.315 345.746 105.301V105.329ZM361.536 233.793C329.667 251.211 286.695 259.469 239.54 262.383C190.006 265.437 135.93 262.453 85.5881 256.971L86.9508 266.686C109.439 268.907 157.993 274.875 211.564 274.666C267.227 274.458 326.639 266.825 361.969 242.606C361.825 239.761 361.68 236.846 361.536 233.793ZM366.655 254.75C332.84 276.609 284.604 284.52 236.944 286.533C269.174 313.597 301.331 324.77 328.73 327.545C361.32 330.876 387.493 321.508 397.082 313.805C406.456 306.311 409.7 300.273 410.277 295.624C410.782 290.905 408.835 286.394 404.365 281.398C396.217 272.099 380.211 263.077 366.655 254.75Z" fill="white"/>
</svg>
