<svg width="48" height="49" viewBox="0 0 48 49" fill="none" xmlns="http://www.w3.org/2000/svg">
<path fill-rule="evenodd" clip-rule="evenodd" d="M12.7592 0.912109H34.7885C42.811 0.912109 47.34 5.46233 47.3635 13.4848V35.5165C47.3635 43.5365 42.811 48.0891 34.7885 48.0891H12.7592C4.73675 48.0891 0.186523 43.5365 0.186523 35.5165V13.4848C0.186523 5.46233 4.73675 0.912109 12.7592 0.912109ZM23.8914 38.3235C24.908 38.3235 25.7549 37.5686 25.8492 36.5543V12.5176C25.9436 11.7864 25.5921 11.0528 24.9552 10.6541C24.2924 10.2531 23.4904 10.2531 22.8558 10.6541C22.2166 11.0528 21.8651 11.7864 21.9335 12.5176V36.5543C22.0538 37.5686 22.9007 38.3235 23.8914 38.3235ZM34.744 38.3235C35.7347 38.3235 36.5815 37.5686 36.7018 36.5543V28.8173C36.7702 28.0601 36.4187 27.3548 35.7795 26.9538C35.145 26.5528 34.343 26.5528 33.6825 26.9538C33.0432 27.3548 32.6918 28.0601 32.7861 28.8173V36.5543C32.8805 37.5686 33.7273 38.3235 34.744 38.3235ZM14.8564 36.5542C14.762 37.5685 13.9152 38.3233 12.8985 38.3233C11.8842 38.3233 11.0351 37.5685 10.9431 36.5542V20.2545C10.8723 19.5209 11.2238 18.792 11.863 18.391C12.4975 17.99 13.3019 17.99 13.9388 18.391C14.5733 18.792 14.9295 19.5209 14.8564 20.2545V36.5542Z" fill="#9A9AA9"/>
</svg>
