<svg width="75" height="76" viewBox="0 0 75 76" fill="none" xmlns="http://www.w3.org/2000/svg">
<path fill-rule="evenodd" clip-rule="evenodd" d="M19.9781 0.794922H54.7245C67.3782 0.794922 74.5217 7.97191 74.5589 20.6256V55.3757C74.5589 68.0257 67.3782 75.2064 54.7245 75.2064H19.9781C7.32445 75.2064 0.147461 68.0257 0.147461 55.3757V20.6256C0.147461 7.97191 7.32445 0.794922 19.9781 0.794922ZM37.5366 59.8034C39.1402 59.8034 40.4759 58.6128 40.6247 57.0129V19.1003C40.7735 17.9469 40.2192 16.7898 39.2146 16.161C38.1691 15.5285 36.9041 15.5285 35.9033 16.161C34.895 16.7898 34.3407 17.9469 34.4486 19.1003V57.0129C34.6383 58.6128 35.974 59.8034 37.5366 59.8034ZM54.6544 59.8028C56.217 59.8028 57.5527 58.6122 57.7425 57.0124V44.8089C57.8504 43.6146 57.296 42.5022 56.2877 41.8697C55.2869 41.2372 54.0219 41.2372 52.9801 41.8697C51.9719 42.5022 51.4175 43.6146 51.5663 44.8089V57.0124C51.7151 58.6122 53.0508 59.8028 54.6544 59.8028ZM23.286 57.0126C23.1372 58.6124 21.8015 59.803 20.1979 59.803C18.5981 59.803 17.2587 58.6124 17.1136 57.0126V31.3034C17.002 30.1463 17.5563 28.9967 18.5646 28.3642C19.5654 27.7317 20.8341 27.7317 21.8387 28.3642C22.8395 28.9967 23.4013 30.1463 23.286 31.3034V57.0126Z" fill="#F15A25"/>
</svg>
