<svg width="48" height="48" viewBox="0 0 48 48" fill="none" xmlns="http://www.w3.org/2000/svg">
<path fill-rule="evenodd" clip-rule="evenodd" d="M41.7025 0.717773H33.7296C30.4036 0.717773 27.7381 3.43045 27.7381 6.75879V14.8001C27.7381 18.1497 30.4036 20.8388 33.7296 20.8388H41.7025C45.0049 20.8388 47.694 18.1497 47.694 14.8001V6.75879C47.694 3.43045 45.0049 0.717773 41.7025 0.717773ZM6.50829 0.7179H14.4812C17.8072 0.7179 20.4727 3.43058 20.4727 6.75892V14.8002C20.4727 18.1498 17.8072 20.8389 14.4812 20.8389H6.50829C3.2059 20.8389 0.516811 18.1498 0.516811 14.8002V6.75892C0.516811 3.43058 3.2059 0.7179 6.50829 0.7179ZM6.50808 27.7732H14.481C17.807 27.7732 20.4725 30.4646 20.4725 33.8142V41.8555C20.4725 45.1815 17.807 47.8942 14.481 47.8942H6.50808C3.20569 47.8942 0.516602 45.1815 0.516602 41.8555V33.8142C0.516602 30.4646 3.20569 27.7732 6.50808 27.7732ZM33.7296 27.7732H41.7025C45.0049 27.7732 47.694 30.4646 47.694 33.8142V41.8555C47.694 45.1815 45.0049 47.8942 41.7025 47.8942H33.7296C30.4036 47.8942 27.7381 45.1815 27.7381 41.8555V33.8142C27.7381 30.4646 30.4036 27.7732 33.7296 27.7732Z" fill="#9A9AA9"/>
</svg>
