<svg width="82" height="82" viewBox="0 0 82 82" fill="none" xmlns="http://www.w3.org/2000/svg">
<path d="M80.5904 40.8754C80.5904 62.7315 62.8725 80.4494 41.0164 80.4494C19.1603 80.4494 1.44236 62.7315 1.44236 40.8754C1.44236 19.0193 19.1603 1.30137 41.0164 1.30137C62.8725 1.30137 80.5904 19.0193 80.5904 40.8754Z" fill="#E5E8ED" stroke="#CBD1DA" stroke-width="1.23238"/>
<g clip-path="url(#clip0_433_2477)">
<path fill-rule="evenodd" clip-rule="evenodd" d="M30.0423 14.87H47.123L62.2004 29.9503V58.9089C62.2004 62.4254 59.3238 65.3048 55.8045 65.3048H30.0424C26.526 65.3048 23.6494 62.4254 23.6494 58.9089V21.2659C23.6494 17.7494 26.526 14.87 30.0423 14.87Z" fill="#E5252A"/>
<path fill-rule="evenodd" clip-rule="evenodd" d="M47.1223 14.87L62.1997 29.9503H48.7479C47.8515 29.9503 47.1223 29.2182 47.1223 28.3218V14.87ZM16.5092 36.3461H51.244C52.0164 36.3461 52.6477 36.9774 52.6477 37.7499V50.4925C52.6477 51.265 52.0164 51.8962 51.244 51.8962H16.5092C15.7367 51.8962 15.1055 51.265 15.1055 50.4925V37.7499C15.1055 36.9774 15.7368 36.3461 16.5092 36.3461Z" fill="#B71D21"/>
<path d="M25.0349 38.9446H22.4148C22.1989 38.9446 21.9918 39.0304 21.8391 39.1831C21.6864 39.3358 21.6006 39.5429 21.6006 39.7588V48.4807C21.6006 48.6966 21.6864 48.9038 21.8391 49.0565C21.9918 49.2092 22.1989 49.2949 22.4148 49.2949C22.6308 49.2949 22.8379 49.2092 22.9906 49.0565C23.1433 48.9038 23.2291 48.6966 23.2291 48.4807V45.9255H25.0348C26.9284 45.9255 28.4691 44.3848 28.4691 42.4913V42.3789C28.4692 40.4852 26.9285 38.9446 25.0349 38.9446ZM26.8407 42.4912C26.8407 43.4869 26.0306 44.2969 25.0349 44.2969H23.2291V40.573H25.0348C26.0305 40.573 26.8406 41.3831 26.8406 42.3787V42.4912H26.8407ZM33.7971 38.9446H31.1772C30.9612 38.9446 30.7541 39.0304 30.6014 39.1831C30.4487 39.3358 30.3629 39.5429 30.3629 39.7588V48.4807C30.3629 48.6966 30.4487 48.9038 30.6014 49.0565C30.7541 49.2092 30.9612 49.2949 31.1772 49.2949H33.7971C35.6908 49.2949 37.2314 47.7543 37.2314 45.8607V42.3789C37.2314 40.4852 35.6908 38.9446 33.7971 38.9446ZM35.6029 45.8606C35.6029 46.8563 34.7928 47.6664 33.7971 47.6664H31.9914V40.573H33.7971C34.7928 40.573 35.6029 41.3831 35.6029 42.3787V45.8606ZM40.9121 40.5731V42.8271H44.6865C44.9025 42.8271 45.1096 42.9129 45.2623 43.0656C45.415 43.2183 45.5008 43.4254 45.5008 43.6413C45.5008 43.8573 45.415 44.0644 45.2623 44.2171C45.1096 44.3698 44.9025 44.4556 44.6865 44.4556H40.9121V48.4807C40.9121 48.6966 40.8263 48.9038 40.6736 49.0565C40.5209 49.2092 40.3138 49.2949 40.0978 49.2949C39.8819 49.2949 39.6748 49.2092 39.5221 49.0565C39.3694 48.9038 39.2836 48.6966 39.2836 48.4807V39.7588C39.2836 39.5429 39.3694 39.3358 39.5221 39.1831C39.6748 39.0304 39.8819 38.9446 40.0978 38.9446H45.3378C45.5538 38.9446 45.7609 39.0304 45.9136 39.1831C46.0663 39.3358 46.1521 39.5429 46.1521 39.7588C46.1521 39.9748 46.0663 40.1819 45.9136 40.3346C45.7609 40.4873 45.5538 40.5731 45.3378 40.5731H40.9121Z" fill="white"/>
</g>
<defs>
<clipPath id="clip0_433_2477">
<rect width="50.4348" height="50.4348" fill="white" transform="translate(13.4346 14.8699)"/>
</clipPath>
</defs>
</svg>
