<svg width="59" height="35" viewBox="0 0 59 35" fill="none" xmlns="http://www.w3.org/2000/svg">
<path d="M39.1123 17.5C39.1123 19.3851 38.5533 21.2279 37.506 22.7953C36.4587 24.3627 34.9701 25.5843 33.2285 26.3057C31.4869 27.0271 29.5705 27.2159 27.7216 26.8481C25.8727 26.4803 24.1744 25.5726 22.8414 24.2396C21.5085 22.9066 20.6007 21.2083 20.2329 19.3595C19.8652 17.5106 20.0539 15.5942 20.7753 13.8525C21.4967 12.1109 22.7184 10.6224 24.2858 9.57506C25.8532 8.52775 27.696 7.96875 29.5811 7.96875C32.1089 7.96875 34.5332 8.97293 36.3207 10.7604C38.1081 12.5478 39.1123 14.9722 39.1123 17.5ZM58.1748 2.25V32.75C58.1748 33.2556 57.974 33.7404 57.6165 34.0979C57.259 34.4554 56.7741 34.6562 56.2686 34.6562H2.89355C2.38799 34.6562 1.90312 34.4554 1.54563 34.0979C1.18814 33.7404 0.987305 33.2556 0.987305 32.75V2.25C0.987305 1.74443 1.18814 1.25957 1.54563 0.902078C1.90312 0.544587 2.38799 0.34375 2.89355 0.34375H56.2686C56.7741 0.34375 57.259 0.544587 57.6165 0.902078C57.974 1.25957 58.1748 1.74443 58.1748 2.25ZM54.3623 13.2943C52.1978 12.6543 50.2277 11.4829 48.6317 9.88688C47.0356 8.29081 45.8642 6.32079 45.2242 4.15625H13.9379C13.2979 6.32079 12.1265 8.29081 10.5304 9.88688C8.93436 11.4829 6.96434 12.6543 4.7998 13.2943V21.7057C6.96434 22.3457 8.93436 23.5171 10.5304 25.1131C12.1265 26.7092 13.2979 28.6792 13.9379 30.8438H45.2242C45.8642 28.6792 47.0356 26.7092 48.6317 25.1131C50.2277 23.5171 52.1978 22.3457 54.3623 21.7057V13.2943Z" fill="#9A9AA9"/>
</svg>
