<svg width="424" height="425" viewBox="0 0 424 425" fill="none" xmlns="http://www.w3.org/2000/svg">
<path d="M212 0.523438C95.5375 0.523438 0.25 95.8109 0.25 212.273C0.25 328.736 95.5375 424.023 212 424.023C328.462 424.023 423.75 328.736 423.75 212.273C423.75 95.8109 328.462 0.523438 212 0.523438ZM195.362 91.2734H228.638V257.648H195.362V91.2734ZM212 348.398C199.9 348.398 189.312 337.811 189.312 325.711C189.312 313.611 199.9 303.023 212 303.023C224.1 303.023 234.688 313.611 234.688 325.711C234.688 337.811 224.1 348.398 212 348.398Z" fill="#D14444"/>
</svg>
