<svg width="64" height="65" viewBox="0 0 64 65" fill="none" xmlns="http://www.w3.org/2000/svg">
<path d="M31.9072 62.664C48.4277 62.664 61.8202 49.2715 61.8202 32.7509C61.8202 16.2304 48.4277 2.83789 31.9072 2.83789C15.3867 2.83789 1.99414 16.2304 1.99414 32.7509C1.99414 49.2715 15.3867 62.664 31.9072 62.664Z" fill="#006C35"/>
<path d="M31.6063 27.4705C31.5066 26.5731 32.0051 25.6757 32.9025 25.8751C33.6005 25.9748 34.3982 26.6728 33.9993 27.3708C33.4011 28.4676 31.8057 28.4676 30.8086 29.0658C30.9083 29.6641 33.7999 28.9661 34.2985 28.9661C34.797 28.9661 35.2956 29.1655 34.9964 29.7638C34.6973 30.3621 33.7002 30.3621 33.1019 30.4618C32.5037 30.5615 31.5066 30.5615 31.2074 31.06C30.6092 31.8577 31.8057 31.9574 32.2045 32.1568C33.2016 32.6554 31.6063 33.1539 31.2074 33.0542C29.7118 32.7551 29.4127 31.9574 28.5153 30.9603C27.6179 32.1568 24.826 34.849 24.2277 32.0571C23.2306 32.456 22.2335 32.9545 21.1367 33.0542C21.6353 32.3563 22.6324 32.0571 23.4301 31.6583C24.4272 31.1597 24.4272 30.2623 25.0254 29.4647C25.2248 29.7638 25.0254 30.1626 25.1251 30.5615C25.9228 30.1626 26.9199 29.365 26.5211 28.3679C26.5211 28.2681 25.3245 25.8751 26.3216 26.2739C27.219 26.6728 26.9199 27.5702 27.1193 28.2681C27.4185 29.5644 26.8202 30.2623 25.8231 31.06C25.4243 31.3592 24.3274 32.5557 25.6237 32.5557C26.5211 32.5557 27.3187 31.5586 27.8173 30.9603C28.4156 30.1626 28.2161 29.365 27.8173 28.4676C27.5182 27.7696 26.8202 26.2739 27.7176 25.7754C28.4156 26.8722 28.7147 28.1684 29.0138 29.4647C29.2132 30.5615 29.4127 31.6583 30.6092 31.9574C30.5095 31.1597 31.008 30.5615 31.706 30.2623C31.2074 29.8635 28.4156 30.3621 29.5124 28.8664C29.6121 28.1684 31.6063 27.8693 31.6063 27.4705Z" fill="white"/>
<path d="M16.3527 31.1551C16.8512 32.551 18.5463 32.0525 19.5434 31.6536C21.1387 30.8559 21.1387 29.6594 21.1387 28.064C20.5405 28.3632 20.6402 29.46 20.4408 29.9585C20.0419 30.7562 18.7457 31.4542 17.8483 31.3545C16.5521 31.1551 15.9538 28.9614 16.9509 28.1638C17.1503 28.8617 16.6518 30.3574 17.8483 30.4571C18.7457 30.5568 20.5405 29.46 20.2413 28.4629C19.0448 28.8617 18.3469 28.4629 18.7457 27.1667C19.0448 25.9701 20.2413 26.8675 20.7399 27.4658C22.6344 26.369 19.2442 22.1811 21.2384 21.0843C21.6373 21.7823 22.2355 22.6797 21.737 23.3777C21.1387 24.1754 21.737 25.8704 21.8367 26.7678C22.8338 25.8704 22.0361 27.4658 22.8338 27.5655C23.3324 27.6652 23.5318 26.369 23.8309 26.369C23.9306 26.6681 23.9306 27.5655 24.4292 27.4658C25.0274 27.2664 24.3295 26.4687 24.9277 26.2693C25.1271 26.7678 25.0274 28.2635 24.3295 28.1638C23.7312 28.064 23.8309 27.6652 23.1329 28.064C22.5347 28.3632 22.3353 28.064 21.9364 27.7649C21.8367 28.9614 22.2356 30.2577 21.5376 31.3545C20.9393 32.2519 19.7428 32.7504 18.7457 32.9498C16.1532 33.4484 15.4553 30.8559 16.3527 28.762C16.5521 29.3603 16.1532 30.4571 16.3527 31.1551ZM40.6819 31.6536C41.1805 32.9498 42.1776 30.2577 42.4767 29.8588C43.2744 28.6623 44.4709 31.7533 44.9695 29.7591C45.2686 28.4629 44.8698 27.1667 44.77 25.8704C44.6703 24.973 44.3712 24.1754 43.7729 23.4774C43.1747 22.6797 42.5764 21.9817 42.8756 20.9846C43.8727 21.3835 43.8727 22.1812 44.3712 22.9788C44.4709 22.3806 44.0721 21.5829 44.4709 21.0843C44.9695 20.3864 45.3683 22.2809 45.3683 22.4803C45.468 22.9788 44.9695 23.1783 45.2686 23.9759C45.468 24.5742 45.8669 25.1725 46.2657 25.671C46.166 25.0727 45.2686 20.9846 46.2657 20.9846C46.5648 20.9846 46.864 22.1812 46.864 22.3806C47.0634 22.9788 46.6645 23.4774 46.6645 24.1754C46.5648 25.3719 46.7642 26.7678 47.5619 27.6652C47.9608 28.1638 49.4564 29.9585 48.6587 30.5568C48.0605 29.8588 47.6616 29.0612 47.1631 28.3632C47.1631 29.1609 47.3625 30.0583 46.9637 30.6565C46.5648 30.4571 46.7642 29.1609 46.7642 28.8617C46.7642 27.7649 46.0663 26.8675 45.468 25.9701C45.2686 27.4658 46.4651 30.2577 45.0692 31.3545C44.1718 32.1522 42.9753 30.3574 42.6761 31.0554C42.377 31.5539 41.679 33.3487 40.8813 33.1493C39.8842 32.9498 39.1863 30.158 40.2831 29.8588C40.3828 30.3574 40.3828 31.0554 40.6819 31.6536Z" fill="white"/>
<path d="M19.343 24.8752C20.041 24.9749 19.343 22.5819 19.343 22.183C19.4427 21.7842 19.7419 21.5848 19.9413 21.9836C20.2404 22.5819 20.2404 23.2799 20.3401 23.8781C20.3401 24.3767 20.4398 24.9749 20.041 25.3738C19.4427 25.972 18.6451 25.6729 18.3459 24.8752C16.95 26.0717 18.7448 28.1656 17.5483 29.3622C17.3488 28.2654 17.5483 27.0688 17.1494 26.0717C16.95 25.5732 16.0526 25.7726 15.9529 24.8752C15.9529 24.4764 16.252 23.3796 15.8532 23.0804C15.6538 23.4793 15.4543 26.5703 14.4572 25.6729C13.6596 25.0746 13.859 23.0804 14.1581 22.2827C14.7564 22.5819 14.0584 24.7755 14.8561 24.8752C15.2549 24.9749 15.3546 23.2799 15.4543 22.9807C15.7535 22.4822 16.7506 21.0862 16.5512 22.4822C16.4514 23.0804 15.9529 24.9749 17.1494 24.8752C17.0497 23.8781 16.95 22.881 16.7506 21.8839C16.6509 21.3854 16.95 20.3883 17.3488 21.2856C17.648 21.8839 17.4485 22.183 17.3488 22.7813C17.2491 23.4793 17.5483 24.1772 17.648 24.7755C18.2462 24.277 17.4485 22.3825 17.9471 21.5848C19.1436 22.2827 17.8474 24.6758 19.343 24.8752ZM32.2056 25.0746C31.7071 25.7726 30.8097 25.1743 30.4109 24.6758C29.9123 25.2741 28.9152 26.2712 28.1175 25.4735C27.5193 24.8752 28.2172 23.7784 27.7187 23.2799C27.4196 23.7784 26.921 26.1714 26.0236 25.0746C25.5251 24.4764 24.8271 22.3825 25.9239 21.8839C25.8242 22.6816 25.6248 23.579 26.1233 24.277C26.6219 24.9749 27.1204 23.1801 27.3198 22.7813C27.619 22.0833 28.6161 20.8868 28.4167 22.3825C28.3169 22.9807 28.1175 24.3767 28.7158 24.7755C29.1146 25.0746 29.6132 24.5761 29.8126 24.277C30.2114 23.7784 30.012 22.9807 29.9123 22.3825C29.8126 21.8839 29.6132 21.2856 29.9123 20.7871C30.3112 20.1888 30.6103 21.5848 30.6103 21.8839C30.6103 22.183 31.0091 25.2741 31.7071 24.277C32.4051 23.3796 30.5106 21.3854 31.8068 20.8868C32.3054 20.6874 33.2027 22.6816 32.2056 22.0833C32.5048 22.9807 32.9036 24.277 32.2056 25.0746ZM35.9946 26.2712C36.0943 27.5674 37.1912 31.157 35.6955 31.9546C35.4961 31.5558 35.6955 30.9575 35.7952 30.459C35.8949 29.5616 35.6955 28.6642 35.5958 27.8665C35.3964 25.972 35.1969 24.5761 33.9007 23.0804C33.6016 22.6816 33.103 22.3825 33.0033 21.7842C33.0033 21.5848 32.9036 20.6874 33.3025 20.8868C33.6016 20.9865 35.2967 22.4822 34.3993 22.4822C34.499 22.6816 34.8978 23.4793 35.0972 23.4793C35.0972 22.9807 34.499 21.4851 35.0972 21.1859C35.5958 20.8868 36.194 22.7813 35.9946 23.1801C35.7952 23.6787 35.7952 23.9778 35.9946 24.6758C36.194 25.4735 36.6926 26.1714 37.0914 26.8694C37.6897 27.8665 38.8862 29.2625 38.5871 30.5587C37.9888 30.2596 37.59 28.8636 37.2909 28.2654C37.0914 27.7668 36.892 27.2683 36.5929 26.8694C36.4932 26.7697 35.8949 25.972 35.9946 26.4706V26.2712ZM49.8543 28.1656C49.954 30.2596 49.2561 32.9517 46.6636 32.9517C46.6636 32.3535 47.9598 31.7552 48.3587 31.4561C49.3558 30.6584 49.2561 29.1627 49.1564 28.0659C49.0567 26.5703 48.9569 25.0746 48.6578 23.579C48.5581 22.6816 48.0596 21.3854 48.8572 20.7871C49.3558 21.1859 50.0538 22.2827 49.7546 22.6816C49.2561 23.2799 49.7546 27.7668 49.8543 28.1656Z" fill="white"/>
<path d="M37.0914 32.6536C39.6839 31.1579 38.8862 27.9672 38.6868 25.4745C38.5871 24.7765 38.5871 24.0785 38.4874 23.3805C38.4874 22.882 38.0885 22.184 38.288 21.6855C38.7865 20.3892 39.1854 21.5858 39.2851 22.3834C39.3848 22.882 38.9859 22.9817 39.0856 23.3805C39.1854 24.1782 39.1854 24.9759 39.2851 25.7736C39.3848 27.0698 39.5842 28.3661 39.4845 29.5626C39.2851 31.4571 38.288 33.551 35.9946 33.1521C36.0943 32.9527 36.7923 32.853 37.0914 32.6536ZM41.2793 27.6681C41.379 28.6652 41.7778 30.46 41.2793 31.3574C40.8804 31.9556 40.8804 30.9585 40.7807 30.8588C40.681 30.0611 40.681 29.2634 40.681 28.3661C40.4816 26.1724 39.7836 23.9788 39.7836 21.8849C39.7836 19.1927 42.0769 23.3805 40.7807 23.1811C40.8804 24.6768 41.0798 26.1724 41.2793 27.6681ZM25.0265 22.5829C25.2259 23.0814 22.7332 24.3776 22.434 24.3776C22.3343 23.8791 23.5309 23.1811 23.83 22.9817C24.1291 22.6826 24.3285 22.6826 24.2288 22.2837C24.0294 21.8849 24.1291 21.1869 24.6277 20.9875C25.6248 20.6884 24.9268 22.184 25.0265 22.5829ZM14.7564 31.4571C14.7564 32.2547 15.0555 31.8559 15.4543 31.6565C15.6538 32.0553 15.1552 33.1521 14.6567 32.6536C13.9587 31.9556 14.5569 30.3603 14.8561 29.6623C15.0555 30.1608 14.6567 30.9585 14.7564 31.4571ZM42.8746 25.275C42.9743 24.8762 42.6752 24.4774 42.9743 24.0785C43.3732 23.58 43.772 24.1782 43.5726 24.3776C43.3732 24.5771 43.074 24.1782 43.074 24.7765C43.074 25.0756 43.2735 25.6739 42.9743 25.973C42.7749 25.8733 41.8775 24.5771 41.9772 24.3776C42.3761 23.9788 42.7749 25.1753 42.8746 25.275ZM16.8503 26.9701C16.6509 27.369 14.3575 28.6652 14.2578 28.3661C14.2578 28.0669 17.1494 26.3718 16.8503 26.9701ZM33.801 32.0553C33.5019 32.9527 34.7981 32.155 35.0972 32.0553C34.6984 32.7533 33.3025 33.3516 33.5019 32.0553C33.4022 32.0553 33.2027 32.155 33.103 32.155C32.9036 31.9556 34.1001 31.1579 33.801 32.0553ZM44.6694 31.7562C44.9685 31.7562 45.4671 32.6536 45.168 32.853C44.9685 33.0524 44.0711 33.1521 44.5697 32.7533C45.168 32.155 44.6694 31.7562 44.6694 31.7562ZM30.6103 26.671C30.71 26.4716 30.71 26.1724 30.8097 25.973C31.8068 26.7707 29.2143 28.0669 29.7129 26.1724C29.9123 26.3718 29.9123 26.671 30.1117 26.7707C30.1117 26.5713 30.2114 26.2721 30.2114 26.0727C30.4109 26.2721 30.4109 26.5713 30.6103 26.671ZM42.2764 27.9672C41.9772 27.5684 43.772 26.4716 44.0711 26.2721C44.2706 26.5713 42.8746 27.6681 42.2764 27.9672ZM47.8601 23.9788C47.6607 23.3805 47.0625 22.184 47.6607 21.6855C48.0596 21.9846 48.259 23.4803 47.8601 23.9788ZM36.9917 21.9846C36.892 21.7852 36.5929 21.5858 36.5929 21.2866C36.6926 20.8878 36.892 20.9875 37.0914 21.1869C37.3906 21.5858 37.59 22.6826 37.0914 22.9817C37.0914 22.6826 37.1911 22.2837 36.9917 21.9846ZM24.8271 24.6768C24.8271 25.275 23.83 25.8733 23.7303 25.0756C23.6306 24.7765 24.1291 23.6797 24.3285 23.9788C23.9297 24.8762 23.9297 25.1753 24.8271 24.6768Z" fill="white"/>
<path d="M37.2906 23.5805C37.6895 24.5776 37.49 23.6802 37.8889 23.4808C38.5868 24.777 36.3932 24.4779 36.8918 23.6802C36.9915 23.7799 37.0912 23.9793 37.0912 24.0791C37.1909 23.9793 37.1909 23.7799 37.2906 23.5805ZM43.6721 28.1672C43.1735 27.7683 43.7718 27.2698 44.0709 27.7683C44.2703 28.0675 44.2703 28.8651 43.8715 29.0646C43.8715 28.7654 43.9712 28.3666 43.6721 28.1672ZM23.2315 30.3608C23.2315 30.1614 23.1318 28.6657 23.4309 28.8651C23.8298 29.0646 23.73 30.1614 23.2315 30.3608ZM19.0437 20.988C19.1434 21.2872 19.2431 21.686 19.4425 21.1875C20.2402 22.0849 17.4483 21.7857 18.4454 20.8883C18.4454 20.988 18.6448 21.5863 19.0437 20.988ZM29.2141 23.1817C29.2141 22.7828 28.6158 21.0877 29.1144 21.0877C29.7126 21.1875 29.6129 22.6831 29.2141 23.1817ZM15.2547 22.2843C14.9555 22.1846 15.4541 21.686 15.2547 21.2872C15.0553 21.3869 14.8558 21.0877 15.0553 20.8883C15.8529 20.2901 15.5538 22.2843 15.2547 22.2843ZM41.0796 42.5254L40.6808 41.3289L40.2819 42.5254H18.4454C18.4454 42.5254 18.6448 44.3202 20.8384 44.3202H40.1822V45.7162H45.4668V42.5254H41.0796ZM44.4697 44.9185H40.8802V43.9214H44.4697V44.9185Z" fill="white"/>
</svg>
