<svg width="89" height="88" viewBox="0 0 89 88" fill="none" xmlns="http://www.w3.org/2000/svg">
<rect x="0.125" y="0.00439453" width="87.991" height="87.991" rx="29.3303" fill="#F15A25"/>
<path fill-rule="evenodd" clip-rule="evenodd" d="M42.8987 21.3909C31.0872 21.3909 21.512 30.9661 21.512 42.7776C21.512 54.5892 31.0872 64.1643 42.8987 64.1643C54.7103 64.1643 64.2854 54.5892 64.2854 42.7776C64.2854 30.9661 54.7103 21.3909 42.8987 21.3909ZM17.8457 42.7776C17.8457 28.9412 29.0623 17.7246 42.8987 17.7246C56.7351 17.7246 67.9517 28.9412 67.9517 42.7776C67.9517 49.036 65.6569 54.7584 61.8629 59.1493L69.859 67.1454C70.5749 67.8613 70.5749 69.022 69.859 69.7379C69.1431 70.4538 67.9824 70.4538 67.2665 69.7379L59.2704 61.7418C54.8795 65.5358 49.1571 67.8306 42.8987 67.8306C29.0623 67.8306 17.8457 56.614 17.8457 42.7776Z" fill="white"/>
</svg>
