<svg width="50" height="51" viewBox="0 0 50 51" fill="none" xmlns="http://www.w3.org/2000/svg">
<path d="M48.53 30.3125L48.4786 30.2709L45.0267 27.5639C44.8081 27.391 44.6337 27.1687 44.5177 26.9152C44.4017 26.6618 44.3475 26.3844 44.3595 26.1059V24.8416C44.3486 24.5649 44.4035 24.2895 44.5196 24.0382C44.6358 23.7868 44.81 23.5666 45.0278 23.3956L48.4786 20.6875L48.53 20.6459C49.0622 20.2026 49.4193 19.5844 49.5376 18.9019C49.6558 18.2194 49.5274 17.5171 49.1753 16.9206L44.5039 8.83781C44.4985 8.83019 44.4938 8.82214 44.4897 8.81375C44.1357 8.22549 43.5869 7.77978 42.9386 7.554C42.2902 7.32823 41.5833 7.33665 40.9405 7.57781L40.9022 7.59203L36.8444 9.225C36.5883 9.32855 36.3112 9.36976 36.0361 9.34523C35.7609 9.3207 35.4955 9.23113 35.2617 9.08391C34.903 8.85787 34.5384 8.64422 34.168 8.44297C33.9278 8.31273 33.7216 8.12788 33.566 7.90332C33.4104 7.67875 33.3098 7.42076 33.2722 7.15016L32.6608 2.82L32.6477 2.74125C32.5146 2.07056 32.1547 1.46613 31.6284 1.02952C31.1022 0.592923 30.4417 0.350767 29.758 0.34375H20.4042C19.7109 0.345969 19.0405 0.592815 18.5113 1.0408C17.9821 1.48879 17.6279 2.10917 17.5113 2.79266L17.5014 2.85391L16.8922 7.19281C16.8548 7.46264 16.755 7.72002 16.6006 7.94447C16.4462 8.16891 16.2416 8.35421 16.003 8.48563C15.6315 8.68571 15.2667 8.89802 14.9092 9.12219C14.6759 9.26851 14.4112 9.3574 14.1368 9.38155C13.8624 9.4057 13.5863 9.36441 13.331 9.26109L9.26986 7.62047L9.23158 7.60516C8.58786 7.36373 7.87988 7.35562 7.23081 7.58224C6.58173 7.80886 6.03265 8.25586 5.67908 8.84547L5.66486 8.86953L0.986889 16.9578C0.634297 17.5549 0.505606 18.258 0.623831 18.9413C0.742055 19.6246 1.09948 20.2436 1.6322 20.6875L1.68361 20.7291L5.13548 23.4361C5.35408 23.609 5.52854 23.8313 5.64452 24.0848C5.7605 24.3382 5.8147 24.6156 5.80267 24.8941V26.1584C5.81362 26.4351 5.75876 26.7105 5.64258 26.9618C5.52641 27.2132 5.35224 27.4334 5.13439 27.6044L1.68361 30.3125L1.6322 30.3541C1.10001 30.7974 0.742873 31.4156 0.624649 32.0981C0.506425 32.7806 0.634825 33.4829 0.986889 34.0794L5.6583 42.1622C5.66367 42.1698 5.66843 42.1779 5.67251 42.1862C6.02648 42.7745 6.57528 43.2202 7.22364 43.446C7.87199 43.6718 8.57894 43.6633 9.22173 43.4222L9.26001 43.408L13.3145 41.775C13.5707 41.6714 13.8477 41.6302 14.1229 41.6548C14.398 41.6793 14.6634 41.7689 14.8972 41.9161C15.256 42.1429 15.6205 42.3565 15.991 42.557C16.2311 42.6873 16.4373 42.8721 16.5929 43.0967C16.7485 43.3212 16.8492 43.5792 16.8867 43.8498L17.4949 48.18L17.508 48.2587C17.6413 48.9305 18.0022 49.5358 18.5298 49.9725C19.0573 50.4093 19.7194 50.6507 20.4042 50.6562H29.758C30.4514 50.654 31.1217 50.4072 31.6509 49.9592C32.1801 49.5112 32.5343 48.8908 32.651 48.2073L32.6608 48.1461L33.27 43.8072C33.308 43.5368 33.4086 43.2791 33.564 43.0546C33.7194 42.8302 33.9251 42.6451 34.1647 42.5144C34.5388 42.3131 34.9041 42.0998 35.2584 41.8778C35.4918 41.7315 35.7565 41.6426 36.0309 41.6185C36.3052 41.5943 36.5814 41.6356 36.8367 41.7389L40.8978 43.3741L40.9361 43.3894C41.5798 43.6312 42.2879 43.6396 42.9371 43.4129C43.5863 43.1863 44.1353 42.739 44.4886 42.1491C44.4929 42.1408 44.4977 42.1328 44.5028 42.125L49.1742 34.0433C49.5275 33.4462 49.6566 32.743 49.5386 32.0594C49.4206 31.3758 49.063 30.7565 48.53 30.3125ZM33.8213 25.9113C33.7416 27.605 33.1716 29.2391 32.1804 30.6149C31.1892 31.9907 29.8197 33.0489 28.2383 33.6607C26.6569 34.2726 24.9318 34.4118 23.2728 34.0614C21.6138 33.711 20.0923 32.8861 18.8934 31.687C17.6945 30.488 16.8698 28.9664 16.5196 27.3073C16.1694 25.6483 16.3088 23.9232 16.9208 22.3419C17.5329 20.7605 18.5912 19.3911 19.9671 18.4001C21.343 17.4092 22.9772 16.8393 24.671 16.7598C25.8869 16.7063 27.1008 16.9064 28.2352 17.3474C29.3697 17.7883 30.4 18.4606 31.2606 19.3213C32.1212 20.182 32.7933 21.2124 33.2342 22.3469C33.675 23.4814 33.8749 24.6953 33.8213 25.9113Z" fill="#9A9AA9"/>
</svg>
