<svg width="56" height="56" viewBox="0 0 56 56" fill="none" xmlns="http://www.w3.org/2000/svg">
<path fill-rule="evenodd" clip-rule="evenodd" d="M50.0537 23.7564L53.2967 21.9067C54.2117 21.3841 54.8674 20.5387 55.1421 19.5253C55.4162 18.5112 55.2776 17.4543 54.7486 16.5509L51.7649 11.4444C51.2366 10.5404 50.381 9.89185 49.3546 9.62045C48.3302 9.34967 47.2593 9.48659 46.3443 10.0092L43.1007 11.8589C42.6596 12.1113 41.8671 12.0496 41.4706 11.7311C41.4341 11.7018 40.5773 11.0172 39.3387 10.3106C38.1188 9.61254 37.08 9.21677 37.0298 9.19765L37.0293 9.19746C36.5523 9.01653 36.1013 8.36921 36.1013 7.86309V4.16499C36.1007 2.00175 34.3202 0.243164 32.1321 0.243164H26.1646C23.9764 0.243164 22.196 2.00175 22.196 4.16438V7.8637C22.196 8.36799 21.745 9.01653 21.268 9.19746C21.2247 9.21397 20.1829 9.61128 18.9586 10.3106C17.7201 11.0172 16.8632 11.7018 16.828 11.7305C16.432 12.049 15.6402 12.1113 15.1972 11.8589L11.9524 10.008C11.0374 9.48598 9.96901 9.34905 8.94206 9.61984C7.91634 9.89124 7.06013 10.5398 6.5318 11.4432L3.54806 16.5497C3.01974 17.4537 2.88054 18.5106 3.15522 19.5234C3.4299 20.5381 4.08567 21.3835 5.00003 21.9055L8.2436 23.7558C8.68532 24.0076 9.02743 24.7167 8.94577 25.2142C8.93834 25.2582 8.76945 26.3127 8.76945 27.7497C8.76945 29.1868 8.93834 30.24 8.94577 30.284C9.02681 30.7809 8.6847 31.4906 8.2436 31.7424L5.00003 33.5921C4.08505 34.1141 3.4299 34.9601 3.15522 35.9748C2.88054 36.9876 3.01974 38.0457 3.54806 38.9492L6.5318 44.0556C7.62681 45.9273 10.0575 46.5703 11.9536 45.4908L15.1966 43.6412C15.6383 43.3881 16.4308 43.4511 16.8261 43.7689C16.8626 43.7983 17.7201 44.4835 18.9586 45.1907C20.1835 45.8912 21.2253 46.2879 21.2686 46.3038C21.7456 46.4847 22.1966 47.1327 22.1966 47.6376V51.3344C22.1966 53.4958 23.9771 55.2557 26.1652 55.2557H32.1327C34.3209 55.2557 36.1013 53.4958 36.1013 51.3344V47.6376C36.1013 47.1333 36.5523 46.4847 37.0293 46.3038C37.0726 46.2879 38.1157 45.8906 39.34 45.1907C40.5791 44.4835 41.4372 43.7983 41.4724 43.7689C41.8684 43.4511 42.6621 43.3893 43.1032 43.6412L46.3443 45.4896C47.2593 46.0122 48.3295 46.1498 49.3546 45.879C50.381 45.6076 51.2372 44.9584 51.7649 44.055L54.7486 38.9485C55.277 38.0445 55.4162 36.9882 55.1421 35.9754C54.8674 34.9607 54.211 34.1141 53.2961 33.5927L50.0543 31.7431C49.6126 31.4912 49.2705 30.7828 49.3516 30.2846C49.3596 30.2406 49.5279 29.1868 49.5279 27.7503C49.5279 26.312 49.3584 25.2588 49.3509 25.2148C49.2699 24.7173 49.612 24.0082 50.0537 23.7564ZM47.4088 25.5214L47.4106 25.5339V25.5339C47.4274 25.6496 47.5592 26.5557 47.5592 27.7495C47.5592 29.0144 47.4119 29.9556 47.4089 29.9748L47.4088 29.9751C47.1997 31.2605 47.9303 32.7771 49.0711 33.4274L52.3135 35.2765C52.7731 35.5393 53.1022 35.9654 53.2414 36.4782C53.3806 36.9892 53.3101 37.5216 53.0453 37.9752L50.0616 43.0816C49.7956 43.5364 49.365 43.861 48.8466 43.9991C48.3294 44.1367 47.7905 44.067 47.3303 43.8047L44.0898 41.9569C42.9502 41.3053 41.2551 41.4386 40.2331 42.2583C40.2257 42.2656 39.4524 42.8811 38.3574 43.5058C37.2735 44.1244 36.3344 44.4851 36.3257 44.4875C35.0971 44.9533 34.1339 46.3372 34.1339 47.6373V51.3342C34.1339 52.4235 33.2374 53.3092 32.135 53.3092H26.1675C25.0651 53.3092 24.1687 52.4235 24.1687 51.3342V47.6373C24.1687 46.3372 23.2061 44.9527 21.9768 44.4869C21.9669 44.4832 21.0383 44.1299 19.9458 43.5058C18.8508 42.8811 18.0775 42.2656 18.0707 42.2583C17.048 41.4386 15.3523 41.3047 14.2146 41.9569L12.0246 43.2051C11.8745 43.292 11.6531 43.418 11.3091 43.6137L10.9723 43.8054C10.0159 44.3506 8.79155 44.0254 8.24095 43.0835L5.25721 37.977C4.99181 37.5222 4.92191 36.9898 5.0611 36.4788C5.19968 35.966 5.52942 35.5399 5.98846 35.2771L6.09956 35.2139L6.0997 35.2138C6.63269 34.9106 6.8969 34.7603 7.03892 34.6744L9.22894 33.4274C10.3697 32.7771 11.0991 31.2599 10.8906 29.9763L10.8902 29.9734C10.8813 29.9147 10.7403 28.9864 10.7403 27.7495C10.7403 26.4837 10.8878 25.5408 10.8906 25.5229L10.8906 25.5227C11.1003 24.2372 10.3703 22.7207 9.22894 22.0703L7.03397 20.8178L5.98536 20.22C5.52633 19.9584 5.19659 19.5317 5.05801 19.0195C4.91881 18.5079 4.98934 17.9761 5.25412 17.5213L8.23786 12.4149C8.50326 11.9613 8.93384 11.6355 9.45289 11.4986C9.97008 11.3611 10.5089 11.4308 10.968 11.6911L14.2128 13.542C15.3542 14.193 17.0474 14.0604 18.0688 13.2401C18.0768 13.2333 18.8489 12.6196 19.9445 11.9937C21.0272 11.3751 21.9657 11.0151 21.9737 11.0127C23.2023 10.5469 24.1656 9.16421 24.1656 7.86285V4.16352C24.1656 3.07426 25.062 2.18794 26.1644 2.18794H32.1319C33.2343 2.18794 34.1308 3.07426 34.1308 4.16352V7.86163C34.1308 9.16299 35.094 10.5469 36.322 11.012C36.3319 11.0157 37.2698 11.3751 38.353 11.9931C39.4481 12.6184 40.2207 13.2327 40.2282 13.2395C41.2489 14.0598 42.9453 14.193 44.0842 13.542L47.3278 11.693C47.7868 11.4301 48.3238 11.3611 48.8441 11.4992C49.3625 11.6361 49.7931 11.9613 50.0585 12.4149L53.0422 17.5213C53.3076 17.9761 53.3775 18.5085 53.2383 19.0195C53.0991 19.5317 52.77 19.9584 52.3104 20.22L49.0699 22.0703C47.9291 22.7207 47.1991 24.2372 47.4088 25.5214ZM29.149 17.0478C23.1778 17.0478 18.3183 21.8492 18.3183 27.7503C18.3183 33.6513 23.1778 38.4521 29.149 38.4521C35.1202 38.4521 39.9796 33.6513 39.9796 27.7503C39.9796 21.8492 35.1202 17.0478 29.149 17.0478ZM29.1493 36.5059C24.2638 36.5059 20.289 32.5773 20.289 27.7502C20.289 22.9225 24.2638 18.9946 29.1493 18.9946C34.0348 18.9946 38.0096 22.9225 38.0096 27.7502C38.0096 32.5773 34.0348 36.5059 29.1493 36.5059Z" fill="#1E1E85"/>
</svg>
