<svg width="555" height="502" viewBox="0 0 555 502" fill="none" xmlns="http://www.w3.org/2000/svg">
<circle opacity="0.05" cx="277.593" cy="269.605" r="231.809" fill="#605BFF"/>
<path fill-rule="evenodd" clip-rule="evenodd" d="M278.042 184.467C283.683 239.479 251.35 262.423 242.188 267.761C242.263 268.329 242.301 268.935 242.301 269.54V348.026L257.37 356.318H336.613C336.764 356.318 336.953 356.318 337.105 356.356C355.354 358.854 356.073 337.274 356.073 334.586C355.96 333.223 356.717 331.86 358.042 331.292C369.476 326.37 364.63 310.922 364.175 309.597C363.57 308.045 364.289 306.266 365.803 305.508C380.645 298.315 371.293 285.366 370.082 283.738C369.097 282.678 368.946 281.05 369.741 279.763C396.622 238.532 312.647 248.717 307.27 249.398C306.854 249.474 306.4 249.512 305.945 249.398C304.166 249.058 303.03 247.354 303.371 245.575C315.903 182.082 287.015 182.763 277.966 184.391L278.042 184.467Z" fill="#F15A25"/>
<path fill-rule="evenodd" clip-rule="evenodd" d="M236.925 348.974V269.542C236.925 267.648 236.167 265.945 234.918 264.733C233.669 263.484 231.965 262.727 230.11 262.727H188.084C186.191 262.727 184.487 263.484 183.276 264.733C182.026 265.983 181.269 267.686 181.269 269.542V348.974C181.269 350.867 182.026 352.57 183.276 353.782C184.525 355.031 186.229 355.789 188.084 355.789H230.11C232.003 355.789 233.706 355.031 234.918 353.782C235.94 352.76 236.622 351.435 236.849 349.958C236.849 349.731 236.849 349.466 236.925 349.239C236.925 349.163 236.925 349.049 236.925 348.974Z" fill="#F15A25"/>
<path opacity="0.1" d="M349.668 17.7577C347.5 17.1643 345.339 17.1883 342.869 17.2157C342.251 17.2225 341.634 17.2294 341.016 17.2362C344.073 14.424 347.13 11.6117 349.253 8.19238C349.861 7.25953 348.615 6.34721 348.005 6.97139C344.33 9.79049 340.968 12.9148 337.606 16.0392C337.561 12.0265 337.517 8.01377 337.472 4.00107C337.452 2.14906 334.673 2.17986 334.694 4.03188C334.738 8.04458 334.786 12.3659 334.83 16.3786C332.021 13.6314 329.215 11.1929 326.408 8.75433C325.163 7.84201 323.636 9.40247 324.882 10.3148C327.07 12.7602 329.259 15.2056 331.757 17.6476C328.669 17.6818 325.581 17.716 322.497 18.0589C321.262 18.0726 321.283 19.9246 322.518 19.9109C326.226 20.1785 329.623 20.1409 333.019 20.1032C330.267 22.6034 327.519 25.4122 325.08 28.2176C323.859 29.466 325.728 30.9888 326.953 30.0491C329.705 27.5489 332.46 25.3574 334.902 22.8607C334.94 26.2561 334.981 29.9601 335.636 33.3486C335.643 33.966 336.878 33.9523 337.18 33.3315C337.763 30.238 337.726 26.8426 337.688 23.4472C338.621 24.0543 339.249 24.9735 340.182 25.5805C342.052 27.1034 343.921 28.6262 345.788 29.8403C346.412 30.4508 347.328 29.5145 346.704 28.904C345.139 27.0691 343.884 25.2308 342.319 23.3959C341.38 22.1715 340.134 21.2592 339.198 20.3434C340.741 20.3263 341.977 20.3126 343.52 20.2955C345.99 20.2681 347.843 20.2476 350.306 19.6029C350.612 19.2908 350.598 18.0561 349.668 17.7577Z" fill="#F15A25"/>
<path opacity="0.1" d="M30.2773 173.529C28.1091 172.935 25.9478 172.959 23.4777 172.987C22.8601 172.994 22.2426 173 21.6251 173.007C24.6819 170.195 27.7388 167.383 29.8625 163.963C30.4697 163.031 29.2244 162.118 28.6137 162.742C24.6272 165.256 21.2684 168.689 17.9062 171.814C17.8617 167.801 17.8173 163.788 17.7728 159.775C17.7522 157.923 14.9734 157.954 14.9939 159.806C15.0384 163.819 15.0863 168.14 15.1308 172.153C12.3211 169.406 9.51485 166.967 6.7086 164.529C5.46328 163.616 3.93657 165.177 5.18189 166.089C7.37061 168.535 9.55933 170.98 12.0568 173.422C8.96918 173.456 5.88154 173.49 2.79732 173.833C1.56227 173.847 1.5828 175.699 2.81785 175.685C6.52644 175.953 9.92284 175.915 13.3192 175.878C10.5677 178.378 7.81966 181.187 5.38035 183.992C4.15898 185.24 6.02867 186.763 7.25346 185.823C10.005 183.323 12.7599 181.132 15.2026 178.635C15.2403 182.03 15.2813 185.734 15.9365 189.123C15.9433 189.74 17.1784 189.727 17.4803 189.106C18.0636 186.012 18.026 182.617 17.9883 179.222C18.9215 179.829 19.5493 180.748 20.4824 181.355C22.3521 182.878 24.2218 184.401 26.0881 185.615C26.7124 186.225 27.6285 185.289 27.0041 184.678C25.4397 182.844 24.1841 181.005 22.6198 179.17C21.6798 177.946 20.4345 177.034 19.4979 176.118C21.0418 176.101 22.2768 176.087 23.8206 176.07C26.2907 176.043 28.1433 176.022 30.6066 175.377C30.9119 175.065 30.8983 173.831 30.2773 173.529Z" fill="#F15A25"/>
<path d="M82.2593 71.3892C78.8424 69.5749 75.7342 67.7571 73.2299 64.6978C70.4134 61.3332 69.1338 57.3342 67.2368 53.342C67.2368 53.342 67.2334 53.0334 66.9246 53.0368L66.6158 53.0402C66.6158 53.0402 66.6158 53.0402 66.3105 53.3523C66.3105 53.3523 66.3105 53.3523 66.3139 53.661C65.48 62.0053 60.6048 67.9248 54.4877 73.2406C54.1823 73.5527 54.1892 74.17 54.5014 74.4753C61.3284 77.4867 66.0522 85.7694 68.2888 92.5362C68.6045 93.1501 69.5307 93.1398 69.8327 92.5191C71.0232 88.4927 71.9085 84.7784 74.0288 81.0504C76.149 77.3224 78.8971 74.5136 82.2696 72.3152C82.5749 72.0031 82.5681 71.3858 82.2593 71.3892Z" fill="#1B4A70"/>
<path d="M554.083 163.982C550.666 162.167 547.558 160.349 545.363 157.287C542.546 153.922 541.267 149.923 539.37 145.931C539.37 145.931 539.366 145.622 539.057 145.626L538.749 145.629C538.749 145.629 538.749 145.629 538.443 145.941C538.443 145.941 538.443 145.941 538.447 146.25C537.613 154.594 532.738 160.514 526.62 165.829C526.315 166.142 526.322 166.759 526.634 167.064C533.461 170.076 538.185 178.358 540.422 185.125C540.737 185.739 541.664 185.729 541.965 185.108C543.156 181.082 544.041 177.367 546.162 173.639C548.282 169.911 551.03 167.102 554.402 164.904C554.402 164.904 554.396 164.287 554.083 163.982Z" fill="#1B4A70"/>
<path d="M327.818 88.0788C325.334 86.8715 323.468 85.6574 321.592 83.5173C319.712 81.0684 318.754 78.3007 317.18 75.5398C317.18 75.5398 317.18 75.5398 316.871 75.5432L316.562 75.5466C316.562 75.5466 316.562 75.5466 316.566 75.8553C316.013 81.7269 312.661 85.7772 308.38 89.5291C308.074 89.8412 308.078 90.1499 308.387 90.1465C313.351 92.2524 316.503 98.0829 318.098 102.696C318.105 103.313 319.032 103.303 319.025 102.686C319.612 99.9007 320.507 97.1124 322.023 94.6259C323.54 92.1395 325.372 90.2669 327.825 88.6962C328.134 88.6928 328.127 88.0754 327.818 88.0788Z" fill="#1B4A70"/>
<path d="M249.061 143.13C244.714 141.017 241.294 138.894 238.474 135.221C235.03 130.937 233.435 126.324 231.219 121.41C231.219 121.41 231.215 121.101 230.906 121.104L230.598 121.108C230.598 121.108 230.289 121.111 230.292 121.42L230.296 121.729C229.17 131.62 223.386 139.093 216.044 145.348C215.739 145.66 215.749 146.586 216.366 146.58C224.744 150.191 230.411 160.007 232.974 168.314C233.293 169.236 234.528 169.223 234.826 168.293C236.01 163.649 237.503 159.002 239.925 154.654C242.347 150.305 245.706 146.872 250.001 144.355C249.384 144.361 249.682 143.432 249.061 143.13Z" fill="#1B4A70"/>
<path d="M175.008 65.387C170.616 59.2615 166.229 53.4447 160.616 48.5676C157.501 46.1325 154.386 43.6973 150.969 41.883C149.106 40.9775 147.247 40.3807 145.384 39.4752C144.454 39.1768 143.525 38.8784 142.592 38.2714C141.662 37.973 141.037 37.3625 140.115 37.6814C139.497 37.6883 139.192 38.0003 139.507 38.6143C139.833 40.1542 141.696 41.0597 142.941 41.972C144.499 43.1895 146.053 44.0984 147.61 45.316C150.722 47.4425 153.837 49.8776 156.643 52.3161C161.947 57.1966 166.328 62.3961 170.407 68.2163C172.29 70.9738 176.894 68.4531 175.008 65.387Z" fill="#FF8F6B"/>
<path d="M172.809 189.234C170.274 183.397 164.373 180.375 158.479 177.971C152.586 175.567 145.769 173.481 139.604 174.476C133.744 175.158 127.301 178.934 125.201 184.514C123.702 188.544 122.223 194.426 125.963 197.471C127.836 199.303 131.236 199.574 133.068 197.701C136.124 194.889 133.298 190.599 130.804 188.465C120.512 179.318 103.238 181.053 91.872 186.427C84.8047 189.593 78.6876 194.908 75.0611 202.049C72.0351 207.639 68.7481 217.554 72.8271 223.374C73.4549 224.294 74.6899 224.28 75.2972 223.347C78.6423 218.679 78.567 211.889 80.9824 206.922C83.3943 201.648 87.3603 197.282 91.961 194.452C101.464 188.173 117.795 184.905 127.75 191.586C128.996 192.498 132.416 194.621 130.584 196.494C129.057 198.054 126.57 196.539 125.63 195.314C121.85 188.564 130.722 181.057 136.262 179.452C141.803 177.847 148.304 179.319 153.577 181.421C159.464 183.208 166.294 186.528 169.746 191.429C171.296 192.03 173.444 190.771 172.809 189.234Z" fill="#EF37FF"/>
<path d="M443.887 140.2C444.196 140.196 444.193 139.888 443.884 139.891C443.575 139.894 443.579 140.203 443.887 140.2Z" fill="#3F3937"/>
<path d="M446.608 134.92C451.747 124.985 462.438 114.37 474.52 117.941C478.857 119.127 484.459 123.079 483.903 128.641C483.635 132.349 479.285 129.927 477.724 128.401C473.975 124.43 475.749 117.31 476.932 112.666C478.717 106.472 482.665 100.563 487.873 96.8006C492.158 93.3573 498.008 91.7489 503.25 91.0734C509.11 90.391 514.379 92.1848 519.951 93.3579C522.115 93.6426 523.632 91.1561 522.071 89.6299C518.009 85.353 510.901 84.8144 505.35 85.4934C499.49 86.1757 493.332 87.7875 488.429 91.2377C478.621 97.8292 471.364 111.802 472.421 123.521C473.096 128.761 479.999 138.563 485.804 132.942C488.555 130.442 487.577 125.822 486.308 122.749C484.096 118.143 479.121 115.111 474.476 113.928C460.541 110.378 449.864 122.227 444.745 134.015C444.446 134.944 446 135.853 446.608 134.92Z" fill="#EF37FF"/>
<path d="M179.478 122.17C175.087 116.045 169.477 111.476 162.959 108.462C159.546 106.956 156.136 105.759 152.732 105.179C149.638 104.596 145.003 104.339 142.241 105.913C141.627 106.228 141.637 107.154 142.262 107.765C144.749 109.281 148.458 109.549 151.243 110.135C154.65 111.023 157.439 111.919 160.544 113.428C166.441 116.141 172.043 120.092 176.112 124.986C177.676 126.821 181.045 124.314 179.478 122.17Z" fill="#FF8F6B"/>
<path d="M109.001 143.636C111.773 142.988 114.857 142.645 117.636 142.614C119.18 142.597 120.724 142.58 122.267 142.563C123.194 142.553 124.12 142.543 124.734 142.227C125.348 141.912 125.966 141.905 126.58 141.589C127.194 141.274 127.184 140.348 126.563 140.046C125.942 139.744 125.321 139.442 125.009 139.137C124.388 138.835 123.153 138.849 122.532 138.547C120.988 138.564 119.444 138.581 117.595 138.91C114.511 139.253 111.43 139.905 108.352 140.865C106.503 141.194 107.152 143.965 109.001 143.636Z" fill="#FF8F6B"/>
<path d="M437.946 217.135C446.534 211.791 455.749 207.367 465.598 204.48C470.216 203.194 475.143 201.904 480.076 201.232C482.851 200.893 485.318 200.557 488.094 200.217C490.255 200.193 492.416 200.169 494.259 199.223C494.873 198.907 494.862 197.981 494.241 197.679C492.07 196.777 489.912 197.11 487.442 197.137C484.663 197.168 482.196 197.504 479.417 197.535C474.172 197.902 468.933 198.886 463.698 200.179C453.227 202.765 444.016 207.497 435.446 214.384C434.224 215.632 436.104 218.081 437.946 217.135Z" fill="#FF8F6B"/>
<path d="M420.804 202.813C428.129 195.014 437.642 189.661 446.847 184.311C451.451 181.79 456.36 178.957 461.277 176.742C464.042 175.476 466.498 174.214 468.955 172.952C471.411 171.69 474.183 171.042 476.636 169.471C477.25 169.156 477.24 168.23 476.31 167.931C473.833 167.341 471.065 168.298 468.598 168.634C465.514 168.977 462.745 169.934 459.98 171.199C454.45 173.73 448.923 176.57 443.708 179.715C433.58 185.384 424.691 191.348 417.692 200.687C416.474 202.244 419.274 204.065 420.804 202.813Z" fill="#FF8F6B"/>
<path d="M370.085 56.7398C369.766 55.8172 369.755 54.8912 369.433 53.66C369.426 53.0426 369.114 52.7374 369.11 52.4287C369.107 52.12 369.104 51.8114 368.791 51.5061C368.788 51.1975 368.479 51.2009 368.476 50.8922C368.164 50.587 367.851 50.2817 367.543 50.2851C367.234 50.2886 366.929 50.6007 366.623 50.9127C366.627 51.2214 366.318 51.2248 366.321 51.5335C366.325 51.8422 366.328 52.1508 366.332 52.4595C366.338 53.0769 366.345 53.6942 366.661 54.3081C366.671 55.2341 366.99 56.1567 367.309 57.0793L367.306 56.7706L367.309 57.0793C367.313 57.388 367.628 58.0019 367.94 58.3071C368.253 58.6124 368.874 58.9142 369.179 58.6021C369.488 58.5987 370.102 58.2832 370.098 57.9745C370.098 57.9745 370.092 57.3572 370.085 56.7398Z" fill="#F15A25"/>
<path d="M382.929 101.052C383.149 93.0233 385.54 85.8966 388.237 78.4577C389.74 74.7366 391.246 71.3241 393.061 67.9082C394.876 64.4923 396.698 61.6937 397.583 57.9794C397.576 57.3621 396.948 56.4429 396.337 57.0671C394.807 58.3189 393.891 59.2552 392.673 60.8122C391.764 62.3658 390.858 64.2281 389.949 65.7817C388.138 69.5063 386.326 73.2309 384.827 77.2607C382.13 84.6995 380.679 93.0507 380.459 101.08C380.785 102.619 382.946 102.596 382.929 101.052Z" fill="#FF8F6B"/>
<path d="M408.907 48.9023C409.209 48.2815 409.514 47.9694 409.816 47.3487C409.816 47.3487 409.82 47.6573 409.511 47.6608C409.511 47.6608 409.508 47.3521 409.816 47.3487L410.122 47.0366C410.427 46.7245 410.427 46.7245 410.732 46.4124C411.34 45.4795 412.259 44.8519 412.866 43.9191C413.474 42.9862 414.393 42.3586 415 41.4258C415.302 40.805 415.916 40.4895 416.218 39.8687C416.215 39.5601 416.524 39.5566 416.52 39.248C416.825 38.9359 416.822 38.6272 416.819 38.3185C417.121 37.6978 416.493 36.7786 415.566 36.7889C415.258 36.7923 414.949 36.7957 414.331 36.8026C414.023 36.806 414.026 37.1147 413.717 37.1181C413.717 37.1181 413.717 37.1181 413.409 37.1215C413.717 37.1181 413.717 37.1181 413.409 37.1215C412.791 37.1284 412.18 37.7525 411.566 38.0681C410.338 38.6991 409.422 39.6354 408.506 40.5716C407.59 41.5079 406.674 42.4442 406.07 43.6857C405.463 44.6186 404.55 45.8635 404.252 46.7929C403.644 47.7258 403.97 49.2657 405.212 49.8694C407.068 50.1575 408.3 49.8351 408.907 48.9023Z" fill="#FF8F6B"/>
<path d="M398.742 106.743C399.641 104.263 400.852 102.089 401.751 99.6094C402.65 97.1298 403.552 94.9589 404.76 92.4758C405.971 90.3014 406.87 87.8218 408.081 85.6474C409.292 83.4731 411.12 81.2918 411.402 78.8191C411.392 77.8931 410.462 77.5947 409.844 77.6015C407.381 78.2462 406.177 81.0379 404.653 82.9071C402.825 85.0883 401.617 87.5713 400.409 90.0544C399.202 92.5374 398.303 95.0171 397.407 97.8053C397.112 99.0434 396.508 100.285 396.526 101.828C396.231 103.066 396.248 104.61 396.261 105.844C395.97 107.391 398.138 107.985 398.742 106.743Z" fill="#FF8F6B"/>
<path d="M415.659 72.906C416.259 71.3558 417.172 70.1108 418.084 68.8659C419.299 67.0002 419.892 64.8326 421.11 63.2756C422.328 61.7186 423.865 61.0841 425.395 59.8323C426.926 58.5805 428.456 57.3287 429.982 55.7683C435.787 50.1472 442.525 45.1332 449.582 41.0418C451.425 40.0952 453.267 39.1487 455.109 38.2021C456.338 37.5711 458.176 36.3159 457.233 34.7828C455.655 31.7132 449.524 35.7944 447.682 36.7409C440.625 40.8324 434.823 46.7621 428.397 52.0814C426.559 53.3366 425.032 54.897 423.505 56.4575C421.978 58.018 420.767 60.1923 419.241 61.7528C417.714 63.3132 415.872 64.2598 414.345 65.8203C413.123 67.0686 412.218 68.9309 411.621 70.7898C410.413 73.2728 414.146 75.7011 415.659 72.906Z" fill="#FF8F6B"/>
<path opacity="0.5" d="M269.485 90.8874C270.693 88.4043 270.968 85.3142 270.628 82.5396C270.594 79.4529 270.251 76.3696 269.603 73.5985C269.596 72.9811 268.361 72.9948 268.368 73.6122C268.09 76.3936 268.12 79.1716 268.155 82.2583C268.182 84.7277 268.213 87.5057 267.31 89.6767C266.71 91.2268 268.885 92.4376 269.485 90.8874Z" fill="#EF37FF"/>
<g opacity="0.5">
<path d="M269.657 50.7556C269.626 47.9776 269.904 45.1961 269.568 42.7302C269.229 39.9556 268.275 37.4965 266.704 35.0442C266.388 34.4303 265.157 34.7527 265.476 35.6753C266.765 40.6003 266.824 45.8477 266.882 51.095C266.59 52.6418 269.678 52.6076 269.657 50.7556Z" fill="#EF37FF"/>
</g>
<path opacity="0.5" d="M255.779 24.3577C255.134 21.8952 254.181 19.4361 252.922 17.2891C252.294 16.37 251.971 15.1387 251.344 14.2196C250.716 13.3004 250.078 11.4552 248.843 11.4689C248.225 11.4758 247.608 11.4826 247.306 12.1034C246.702 13.3449 247.642 14.5693 248.273 15.7971C248.901 16.7163 249.532 17.9441 249.851 18.8667C251.11 21.0137 252.06 23.1641 252.702 25.318C253.34 27.1631 256.417 26.2029 255.779 24.3577Z" fill="#EF37FF"/>
<path opacity="0.5" d="M269.934 19.88C270.524 17.4038 270.802 14.6224 271.08 11.8409C271.066 10.6063 271.049 9.06292 271.036 7.82824C271.022 6.59357 271.005 5.05022 270.374 3.82239C270.055 2.8998 268.82 2.91349 268.521 3.84292C267.917 5.08445 267.934 6.62779 267.948 7.86247C267.962 9.09715 267.975 10.3318 267.989 11.5665C268.016 14.0359 267.735 16.5086 267.454 18.9814C267.461 19.5987 267.78 20.5213 268.397 20.5145C269.021 21.125 269.944 20.806 269.934 19.88Z" fill="#EF37FF"/>
<path opacity="0.5" d="M281.765 28.7011C282.349 25.6075 283.553 22.8158 285.069 20.3294C286.586 17.8429 288.723 15.6583 290.548 13.1684C290.85 12.5476 290.531 11.625 289.917 11.9405C286.531 12.9042 284.092 15.7096 282.579 18.5047C280.757 21.3033 279.868 24.7089 279.285 27.8025C278.688 29.6613 281.477 30.5565 281.765 28.7011Z" fill="#EF37FF"/>
<path d="M485.994 149.921C486.299 149.609 486.295 149.301 486.601 148.989C486.903 148.368 487.205 147.747 487.198 147.13C487.191 146.512 487.188 146.204 487.489 145.583L487.486 145.274C487.483 144.966 487.479 144.657 487.476 144.348C487.469 143.731 487.462 143.114 487.146 142.5C487.14 141.882 486.827 141.577 486.515 141.272C485.884 140.044 484.639 139.132 483.091 138.84C483.712 139.142 484.333 139.444 484.958 140.054C484.333 139.444 483.712 139.142 483.095 139.149C482.474 138.847 481.856 138.854 481.551 139.166C480.934 139.173 480.628 139.485 480.014 139.8C479.4 140.116 478.789 140.74 478.487 141.361C479.407 140.733 480.018 140.109 480.937 139.481C480.628 139.485 480.323 139.797 480.014 139.8C479.4 140.116 478.786 140.431 478.481 140.744C478.175 141.056 477.87 141.368 477.565 141.68C477.568 141.988 477.259 141.992 477.263 142.301C477.266 142.609 476.961 142.921 476.964 143.23C477.269 142.918 477.263 142.301 477.568 141.988C477.571 142.297 477.263 142.301 477.266 142.609C477.269 142.918 476.961 142.921 476.964 143.23C476.659 143.542 476.666 144.159 476.36 144.472C476.058 145.092 475.756 145.713 475.767 146.639C475.465 147.26 475.784 148.182 475.791 148.8C476.106 149.414 476.422 150.028 476.737 150.641C477.053 151.255 477.677 151.866 478.298 152.168C478.611 152.473 479.228 152.466 479.54 152.771C480.47 153.07 481.705 153.056 482.628 152.737C482.933 152.425 483.551 152.418 483.856 152.106C485.084 151.475 485.692 150.542 485.994 149.921Z" fill="#FF8F6B"/>
<path d="M473.688 42.9332C473.685 42.6246 473.376 42.628 473.373 42.3193C473.061 42.0141 472.748 41.7088 472.745 41.4002C472.745 41.4002 472.433 41.0949 472.124 41.0983C471.503 40.7965 471.5 40.4878 470.57 40.1894C470.261 40.1929 469.64 39.891 469.331 39.8945C469.023 39.8979 468.405 39.9047 468.405 39.9047L467.482 40.2237C466.868 40.5392 466.563 40.8513 466.261 41.472C465.956 41.7841 465.956 41.7841 465.959 42.0928C465.962 42.4015 465.654 42.4049 465.657 42.7136C465.355 43.3343 465.057 44.2638 465.067 45.1898C465.077 46.1158 465.393 46.7297 465.712 47.6523C466.655 49.1853 468.209 50.0942 469.753 50.0771C471.297 50.06 473.139 49.1135 473.74 47.5633C474.042 46.9425 474.34 46.0131 474.33 45.0871C474.323 44.4697 474.007 43.8558 473.688 42.9332Z" fill="#FF8F6B"/>
<path d="M246.542 82.4985C243.979 74.1918 245.115 65.2267 246.567 56.8756C246.56 56.2582 245.939 55.9564 245.637 56.5772C242.642 64.9455 241.821 74.5245 244.387 83.1398C244.404 84.6832 246.868 84.0385 246.542 82.4985Z" fill="#F15A25"/>
</svg>
