<svg width="225" height="35" viewBox="0 0 225 35" fill="none" xmlns="http://www.w3.org/2000/svg">
<path d="M24.6737 20.9628C24.3311 21.3003 24.1764 21.7856 24.2589 22.2596L25.4979 28.8097C25.6024 29.3648 25.3724 29.9294 24.9097 30.2545C24.4564 30.5916 23.8501 30.6365 23.3506 30.374L17.4203 27.3424C17.214 27.2347 16.9856 27.1779 16.7522 27.1731L16.3909 27.1761C16.2657 27.1958 16.1434 27.2368 16.0319 27.299L10.1507 30.4419C9.8599 30.591 9.52967 30.6457 9.20525 30.5963C8.41472 30.4534 7.88192 29.7058 8.00477 28.9114L9.13775 22.3419C9.2125 21.8626 9.04985 21.3773 8.70175 21.0401L3.84908 16.413C3.44323 16.0256 3.29844 15.4401 3.47811 14.9093C3.65245 14.3799 4.10528 13.9908 4.65522 13.8997L11.2738 12.8842C11.7774 12.828 12.2175 12.5178 12.4405 12.0626L15.3114 6.05225C15.3797 5.91835 15.468 5.79496 15.5751 5.69008L15.6944 5.59577C15.7565 5.52592 15.828 5.468 15.9076 5.42068L16.0525 5.36616L16.2784 5.27098L16.8397 5.26639C17.3414 5.31429 17.7852 5.61067 18.0195 6.05677L21.0269 11.9924C21.2437 12.4266 21.6609 12.7259 22.1401 12.7953L28.7744 13.7024C29.3351 13.7778 29.8062 14.1606 29.9959 14.6924C30.1749 15.2256 30.0291 15.8135 29.6216 16.2022L24.6737 20.9628Z" fill="#FACD49"/>
<path d="M72.6717 20.5702C72.3291 20.9077 72.1744 21.393 72.257 21.867L73.4959 28.4171C73.6005 28.9723 73.3704 29.5368 72.9077 29.862C72.4545 30.199 71.8481 30.244 71.3486 29.9814L65.4183 26.9498C65.2121 26.8421 64.9836 26.7853 64.7502 26.7806L64.3889 26.7835C64.2637 26.8032 64.1414 26.8442 64.0299 26.9065L58.1487 30.0493C57.8579 30.1984 57.5277 30.2531 57.2033 30.2037C56.4128 30.0609 55.88 29.3132 56.0028 28.5188L57.1358 21.9493C57.2105 21.47 57.0479 20.9847 56.6998 20.6475L51.8471 16.0204C51.4413 15.633 51.2965 15.0475 51.4762 14.5167C51.6505 13.9873 52.1033 13.5982 52.6533 13.5071L59.2719 12.4916C59.7754 12.4355 60.2156 12.1252 60.4385 11.67L63.3095 5.65967C63.3777 5.52577 63.466 5.40238 63.5732 5.2975L63.6924 5.20319C63.7545 5.13335 63.826 5.07543 63.9057 5.02811L64.0505 4.97359L64.2764 4.8784L64.8378 4.87381C65.3395 4.92171 65.7833 5.21809 66.0176 5.66419L69.0249 11.5998C69.2418 12.034 69.6589 12.3333 70.1382 12.4027L76.7725 13.3098C77.3331 13.3852 77.8043 13.7681 77.9939 14.2999C78.173 14.8331 78.0271 15.4209 77.6196 15.8096L72.6717 20.5702Z" fill="#FACD49"/>
<path d="M120.67 20.1777C120.327 20.5151 120.172 21.0004 120.255 21.4744L121.494 28.0245C121.599 28.5797 121.368 29.1443 120.906 29.4694C120.452 29.8064 119.846 29.8514 119.347 29.5888L113.416 26.5572C113.21 26.4495 112.982 26.3927 112.748 26.388L112.387 26.3909C112.262 26.4106 112.139 26.4516 112.028 26.5139L106.147 29.6567C105.856 29.8058 105.526 29.8605 105.201 29.8112C104.411 29.6683 103.878 28.9206 104.001 28.1262L105.134 21.5568C105.209 21.0775 105.046 20.5921 104.698 20.255L99.8452 15.6278C99.4393 15.2405 99.2945 14.655 99.4742 14.1242C99.6485 13.5947 100.101 13.2057 100.651 13.1145L107.27 12.099C107.773 12.0429 108.214 11.7326 108.437 11.2774L111.308 5.26709C111.376 5.1332 111.464 5.0098 111.571 4.90492L111.69 4.81061C111.753 4.74077 111.824 4.68285 111.904 4.63553L112.049 4.58101L112.274 4.48582L112.836 4.48123C113.338 4.52913 113.781 4.82551 114.016 5.27161L117.023 11.2072C117.24 11.6415 117.657 11.9407 118.136 12.0101L124.771 12.9172C125.331 12.9927 125.802 13.3755 125.992 13.9073C126.171 14.4405 126.025 15.0284 125.618 15.417L120.67 20.1777Z" fill="#FACD49"/>
<path d="M168.67 19.7851C168.327 20.1226 168.172 20.6078 168.255 21.0819L169.494 27.6319C169.599 28.1871 169.368 28.7517 168.906 29.0768C168.452 29.4139 167.846 29.4588 167.347 29.1962L161.416 26.1646C161.21 26.057 160.982 26.0002 160.748 25.9954L160.387 25.9984C160.262 26.0181 160.139 26.0591 160.028 26.1213L154.147 29.2642C153.856 29.4132 153.526 29.4679 153.201 29.4186C152.411 29.2757 151.878 28.528 152.001 27.7337L153.134 21.1642C153.209 20.6849 153.046 20.1995 152.698 19.8624L147.845 15.2352C147.439 14.8479 147.295 14.2624 147.474 13.7316C147.649 13.2021 148.101 12.8131 148.651 12.7219L155.27 11.7064C155.773 11.6503 156.214 11.34 156.437 10.8849L159.308 4.87451C159.376 4.74062 159.464 4.61722 159.571 4.51234L159.69 4.41803C159.753 4.34819 159.824 4.29027 159.904 4.24295L160.049 4.18843L160.274 4.09325L160.836 4.08866C161.338 4.13655 161.781 4.43293 162.016 4.87903L165.023 10.8146C165.24 11.2489 165.657 11.5481 166.136 11.6176L172.771 12.5247C173.331 12.6001 173.802 12.9829 173.992 13.5147C174.171 14.0479 174.025 14.6358 173.618 15.0245L168.67 19.7851Z" fill="#FACD49"/>
<path d="M216.668 19.3925C216.325 19.73 216.171 20.2153 216.253 20.6893L217.492 27.2394C217.597 27.7945 217.366 28.3591 216.904 28.6842C216.451 29.0213 215.844 29.0662 215.345 28.8036L209.414 25.772C209.208 25.6644 208.98 25.6076 208.746 25.6028L208.385 25.6058C208.26 25.6255 208.137 25.6665 208.026 25.7287L202.145 28.8716C201.854 29.0206 201.524 29.0753 201.199 29.026C200.409 28.8831 199.876 28.1355 199.999 27.3411L201.132 20.7716C201.207 20.2923 201.044 19.807 200.696 19.4698L195.843 14.8427C195.437 14.4553 195.293 13.8698 195.472 13.339C195.647 12.8096 196.099 12.4205 196.649 12.3293L203.268 11.3138C203.772 11.2577 204.212 10.9475 204.435 10.4923L207.306 4.48194C207.374 4.34804 207.462 4.22465 207.569 4.11977L207.689 4.02545C207.751 3.95561 207.822 3.89769 207.902 3.85037L208.047 3.79585L208.273 3.70067L208.834 3.69608C209.336 3.74398 209.779 4.04036 210.014 4.48646L213.021 10.4221C213.238 10.8563 213.655 11.1556 214.134 11.225L220.769 12.1321C221.329 12.2075 221.8 12.5903 221.99 13.1221C222.169 13.6553 222.023 14.2432 221.616 14.6319L216.668 19.3925Z" fill="#FACD49"/>
</svg>
