<svg width="93" height="68" viewBox="0 0 93 68" fill="none" xmlns="http://www.w3.org/2000/svg">
<path d="M42.3641 67.542H23.5459C17.2035 67.542 11.7852 65.3436 7.29117 60.9467C2.79711 56.5498 0.548686 51.1758 0.545898 44.8248C0.545898 39.3811 2.18378 34.5305 5.45953 30.2732C8.73529 26.016 13.0217 23.2941 18.3186 22.1076C20.061 15.6868 23.5459 10.4873 28.7732 6.50918C34.0004 2.53106 39.9247 0.541992 46.5459 0.541992C54.7004 0.541992 61.6186 3.3867 67.3003 9.07612C72.982 14.7655 75.8214 21.6917 75.8186 29.8545C80.6277 30.4128 84.6186 32.4898 87.7912 36.0855C90.9638 39.6812 92.5487 43.8854 92.5459 48.6982C92.5459 53.9326 90.717 58.3825 87.0593 62.048C83.4016 65.7134 78.9578 67.5448 73.7277 67.542H50.7277V37.6014L57.4186 44.092L63.2732 38.2295L46.5459 21.4795L29.8186 38.2295L35.6732 44.092L42.3641 37.6014V67.542Z" fill="#D0D1D6"/>
</svg>
