<svg width="1920" height="1241" viewBox="0 0 1920 1241" fill="none" xmlns="http://www.w3.org/2000/svg">
<path d="M-612.626 1446.51C-617.712 1417.93 -604.644 997.483 -454.576 648.221C-319.863 335.148 -2.1189 154.745 373.303 375.9C775.554 612.923 1121.02 634.264 1398.86 561.89C1673.05 490.147 1854.05 279.252 1935.02 145.054C2110.76 -144.954 2375.31 31.3784 2286.01 411.786C2243.85 588.747 2129.3 639.063 1930.26 659.017C1722.21 679.874 1414.26 641.731 988.268 728.079C577.441 811.667 115.963 1008.12 -142.413 1255.49C-417.385 1518.97 -569.959 1695.89 -612.626 1446.51Z" fill="url(#paint0_linear_234_8837)"/>
<defs>
<linearGradient id="paint0_linear_234_8837" x1="2159.47" y1="1196.77" x2="-558.308" y2="378.636" gradientUnits="userSpaceOnUse">
<stop stop-color="#5D50C6"/>
<stop offset="1" stop-color="#F85E9F"/>
</linearGradient>
</defs>
</svg>
