<svg width="201" height="201" viewBox="0 0 201 201" fill="none" xmlns="http://www.w3.org/2000/svg">
<path d="M100.504 175.137C141.795 175.137 175.268 141.664 175.268 100.373C175.268 59.0815 141.795 25.6084 100.504 25.6084C59.2124 25.6084 25.7393 59.0815 25.7393 100.373C25.7393 141.664 59.2124 175.137 100.504 175.137Z" stroke="#59346B" stroke-width="8.30714" stroke-linecap="round" stroke-linejoin="round"/>
<path d="M100.5 150.215C105.661 150.215 109.845 146.03 109.845 140.869C109.845 135.708 105.661 131.523 100.5 131.523C95.3384 131.523 91.1543 135.708 91.1543 140.869C91.1543 146.03 95.3384 150.215 100.5 150.215Z" fill="#59346B"/>
<path d="M100.5 112.832V106.602C104.812 106.602 109.028 105.323 112.615 102.927C116.201 100.531 118.995 97.125 120.646 93.1404C122.296 89.1558 122.728 84.7713 121.887 80.5413C121.045 76.3113 118.969 72.4258 115.919 69.3762C112.869 66.3265 108.984 64.2497 104.754 63.4083C100.524 62.5669 96.1393 62.9987 92.1547 64.6492C88.1701 66.2996 84.7645 69.0946 82.3684 72.6806C79.9723 76.2666 78.6934 80.4827 78.6934 84.7955" stroke="#59346B" stroke-width="8.30714" stroke-linecap="round" stroke-linejoin="round"/>
</svg>
